%TF.GenerationSoftware,KiCad,Pcbnew,10.0.0*%
%TF.CreationDate,2026-05-08T13:02:35+09:00*%
%TF.ProjectId,stm32_wildfire_lcd_adapter,73746d33-325f-4776-996c-64666972655f,rev?*%
%TF.SameCoordinates,Original*%
%TF.FileFunction,Legend,Bot*%
%TF.FilePolarity,Positive*%
%FSLAX46Y46*%
G04 Gerber Fmt 4.6, Leading zero omitted, Abs format (unit mm)*
G04 Created by KiCad (PCBNEW 10.0.0) date 2026-05-08 13:02:35*
%MOMM*%
%LPD*%
G01*
G04 APERTURE LIST*
%ADD10C,0.010000*%
G04 APERTURE END LIST*
D10*
%TO.C,REF\u002A\u002A*%
X100136726Y-75336085D02*
X100257262Y-75380859D01*
X100307389Y-75414500D01*
X100358153Y-75462702D01*
X100394363Y-75524017D01*
X100418394Y-75607490D01*
X100432619Y-75722163D01*
X100439413Y-75877079D01*
X100441150Y-76081280D01*
X100440810Y-76186807D01*
X100439102Y-76331007D01*
X100436202Y-76446086D01*
X100432385Y-76522288D01*
X100427926Y-76549857D01*
X100398910Y-76540738D01*
X100340340Y-76515975D01*
X100338582Y-76515173D01*
X100308168Y-76499251D01*
X100287713Y-76477404D01*
X100275241Y-76439138D01*
X100268778Y-76373961D01*
X100266349Y-76271379D01*
X100265978Y-76120899D01*
X100265230Y-76025440D01*
X100257257Y-75846037D01*
X100238999Y-75714629D01*
X100208527Y-75624325D01*
X100163913Y-75568233D01*
X100103227Y-75539460D01*
X100094808Y-75537455D01*
X99981140Y-75535889D01*
X99892493Y-75586814D01*
X99831266Y-75688911D01*
X99820347Y-75718427D01*
X99795459Y-75783749D01*
X99782855Y-75813766D01*
X99756970Y-75809630D01*
X99700440Y-75787183D01*
X99647716Y-75750113D01*
X99623679Y-75680053D01*
X99630848Y-75629872D01*
X99674898Y-75528084D01*
X99746124Y-75432701D01*
X99829416Y-75366735D01*
X99864311Y-75351484D01*
X99996444Y-75325987D01*
X100136726Y-75336085D01*
G36*
X100136726Y-75336085D02*
G01*
X100257262Y-75380859D01*
X100307389Y-75414500D01*
X100358153Y-75462702D01*
X100394363Y-75524017D01*
X100418394Y-75607490D01*
X100432619Y-75722163D01*
X100439413Y-75877079D01*
X100441150Y-76081280D01*
X100440810Y-76186807D01*
X100439102Y-76331007D01*
X100436202Y-76446086D01*
X100432385Y-76522288D01*
X100427926Y-76549857D01*
X100398910Y-76540738D01*
X100340340Y-76515975D01*
X100338582Y-76515173D01*
X100308168Y-76499251D01*
X100287713Y-76477404D01*
X100275241Y-76439138D01*
X100268778Y-76373961D01*
X100266349Y-76271379D01*
X100265978Y-76120899D01*
X100265230Y-76025440D01*
X100257257Y-75846037D01*
X100238999Y-75714629D01*
X100208527Y-75624325D01*
X100163913Y-75568233D01*
X100103227Y-75539460D01*
X100094808Y-75537455D01*
X99981140Y-75535889D01*
X99892493Y-75586814D01*
X99831266Y-75688911D01*
X99820347Y-75718427D01*
X99795459Y-75783749D01*
X99782855Y-75813766D01*
X99756970Y-75809630D01*
X99700440Y-75787183D01*
X99647716Y-75750113D01*
X99623679Y-75680053D01*
X99630848Y-75629872D01*
X99674898Y-75528084D01*
X99746124Y-75432701D01*
X99829416Y-75366735D01*
X99864311Y-75351484D01*
X99996444Y-75325987D01*
X100136726Y-75336085D01*
G37*
X108078488Y-75269155D02*
X108214849Y-75333236D01*
X108326599Y-75444050D01*
X108349762Y-75478739D01*
X108368974Y-75518056D01*
X108382599Y-75567611D01*
X108391878Y-75637034D01*
X108398051Y-75735956D01*
X108402358Y-75874005D01*
X108406039Y-76060812D01*
X108415181Y-76579008D01*
X108338384Y-76549810D01*
X108268069Y-76522986D01*
X108215425Y-76497172D01*
X108181061Y-76463897D01*
X108161094Y-76412976D01*
X108151640Y-76334227D01*
X108148815Y-76217465D01*
X108148737Y-76052508D01*
X108148337Y-75921024D01*
X108145952Y-75794860D01*
X108140260Y-75708689D01*
X108129962Y-75652138D01*
X108113756Y-75614836D01*
X108090346Y-75586409D01*
X108032794Y-75546293D01*
X107936113Y-75531172D01*
X107840466Y-75569383D01*
X107834153Y-75574276D01*
X107814478Y-75596879D01*
X107799964Y-75633130D01*
X107789395Y-75691977D01*
X107781556Y-75782367D01*
X107775228Y-75913245D01*
X107769196Y-76093561D01*
X107754599Y-76576373D01*
X107630518Y-76520749D01*
X107506438Y-76465125D01*
X107506438Y-76024317D01*
X107506952Y-75904564D01*
X107511381Y-75737972D01*
X107522595Y-75613934D01*
X107543273Y-75522453D01*
X107576094Y-75453532D01*
X107623737Y-75397173D01*
X107688878Y-75343380D01*
X107782572Y-75289185D01*
X107930176Y-75253805D01*
X108078488Y-75269155D01*
G36*
X108078488Y-75269155D02*
G01*
X108214849Y-75333236D01*
X108326599Y-75444050D01*
X108349762Y-75478739D01*
X108368974Y-75518056D01*
X108382599Y-75567611D01*
X108391878Y-75637034D01*
X108398051Y-75735956D01*
X108402358Y-75874005D01*
X108406039Y-76060812D01*
X108415181Y-76579008D01*
X108338384Y-76549810D01*
X108268069Y-76522986D01*
X108215425Y-76497172D01*
X108181061Y-76463897D01*
X108161094Y-76412976D01*
X108151640Y-76334227D01*
X108148815Y-76217465D01*
X108148737Y-76052508D01*
X108148337Y-75921024D01*
X108145952Y-75794860D01*
X108140260Y-75708689D01*
X108129962Y-75652138D01*
X108113756Y-75614836D01*
X108090346Y-75586409D01*
X108032794Y-75546293D01*
X107936113Y-75531172D01*
X107840466Y-75569383D01*
X107834153Y-75574276D01*
X107814478Y-75596879D01*
X107799964Y-75633130D01*
X107789395Y-75691977D01*
X107781556Y-75782367D01*
X107775228Y-75913245D01*
X107769196Y-76093561D01*
X107754599Y-76576373D01*
X107630518Y-76520749D01*
X107506438Y-76465125D01*
X107506438Y-76024317D01*
X107506952Y-75904564D01*
X107511381Y-75737972D01*
X107522595Y-75613934D01*
X107543273Y-75522453D01*
X107576094Y-75453532D01*
X107623737Y-75397173D01*
X107688878Y-75343380D01*
X107782572Y-75289185D01*
X107930176Y-75253805D01*
X108078488Y-75269155D01*
G37*
X104410873Y-75367002D02*
X104420091Y-75372104D01*
X104495382Y-75430546D01*
X104562699Y-75505681D01*
X104574440Y-75522662D01*
X104596884Y-75562291D01*
X104612919Y-75609324D01*
X104623946Y-75673958D01*
X104631366Y-75766389D01*
X104636580Y-75896815D01*
X104640990Y-76075431D01*
X104641615Y-76105628D01*
X104643621Y-76301407D01*
X104640793Y-76440069D01*
X104633089Y-76522569D01*
X104620467Y-76549857D01*
X104582268Y-76541686D01*
X104517375Y-76516929D01*
X104502095Y-76509689D01*
X104478228Y-76493301D01*
X104461770Y-76466359D01*
X104451006Y-76419299D01*
X104444220Y-76342554D01*
X104439694Y-76226561D01*
X104435714Y-76061753D01*
X104434623Y-76013578D01*
X104430408Y-75861426D01*
X104424937Y-75754942D01*
X104416555Y-75684031D01*
X104403607Y-75638595D01*
X104384440Y-75608538D01*
X104357399Y-75583762D01*
X104277338Y-75540327D01*
X104178847Y-75531964D01*
X104090720Y-75565200D01*
X104027315Y-75634014D01*
X104002989Y-75732386D01*
X104002312Y-75759124D01*
X103989025Y-75807531D01*
X103949797Y-75814916D01*
X103872984Y-75786090D01*
X103855193Y-75776844D01*
X103807110Y-75722472D01*
X103806158Y-75641627D01*
X103851969Y-75529818D01*
X103893991Y-75468885D01*
X104001436Y-75382325D01*
X104134058Y-75333386D01*
X104275868Y-75326726D01*
X104410873Y-75367002D01*
G36*
X104410873Y-75367002D02*
G01*
X104420091Y-75372104D01*
X104495382Y-75430546D01*
X104562699Y-75505681D01*
X104574440Y-75522662D01*
X104596884Y-75562291D01*
X104612919Y-75609324D01*
X104623946Y-75673958D01*
X104631366Y-75766389D01*
X104636580Y-75896815D01*
X104640990Y-76075431D01*
X104641615Y-76105628D01*
X104643621Y-76301407D01*
X104640793Y-76440069D01*
X104633089Y-76522569D01*
X104620467Y-76549857D01*
X104582268Y-76541686D01*
X104517375Y-76516929D01*
X104502095Y-76509689D01*
X104478228Y-76493301D01*
X104461770Y-76466359D01*
X104451006Y-76419299D01*
X104444220Y-76342554D01*
X104439694Y-76226561D01*
X104435714Y-76061753D01*
X104434623Y-76013578D01*
X104430408Y-75861426D01*
X104424937Y-75754942D01*
X104416555Y-75684031D01*
X104403607Y-75638595D01*
X104384440Y-75608538D01*
X104357399Y-75583762D01*
X104277338Y-75540327D01*
X104178847Y-75531964D01*
X104090720Y-75565200D01*
X104027315Y-75634014D01*
X104002989Y-75732386D01*
X104002312Y-75759124D01*
X103989025Y-75807531D01*
X103949797Y-75814916D01*
X103872984Y-75786090D01*
X103855193Y-75776844D01*
X103807110Y-75722472D01*
X103806158Y-75641627D01*
X103851969Y-75529818D01*
X103893991Y-75468885D01*
X104001436Y-75382325D01*
X104134058Y-75333386D01*
X104275868Y-75326726D01*
X104410873Y-75367002D01*
G37*
X102492411Y-75332436D02*
X102556443Y-75357532D01*
X102630806Y-75391413D01*
X102630806Y-76370193D01*
X102538416Y-76462583D01*
X102517311Y-76483301D01*
X102458848Y-76529351D01*
X102399887Y-76544267D01*
X102312151Y-76537400D01*
X102276430Y-76532960D01*
X102184302Y-76523568D01*
X102119886Y-76519827D01*
X102100779Y-76520399D01*
X102022391Y-76526592D01*
X101927621Y-76537400D01*
X101897299Y-76541113D01*
X101820912Y-76542573D01*
X101765023Y-76519513D01*
X101701356Y-76462583D01*
X101608966Y-76370193D01*
X101608966Y-75846921D01*
X101609686Y-75692287D01*
X101611930Y-75544857D01*
X101615422Y-75428119D01*
X101619877Y-75351306D01*
X101625014Y-75323650D01*
X101626091Y-75323724D01*
X101663408Y-75337485D01*
X101726458Y-75367810D01*
X101811855Y-75411971D01*
X101819894Y-75871431D01*
X101827932Y-76330891D01*
X102003104Y-76330891D01*
X102011093Y-75827271D01*
X102013625Y-75690370D01*
X102017250Y-75544045D01*
X102021178Y-75427877D01*
X102025081Y-75351275D01*
X102028633Y-75323650D01*
X102029654Y-75323747D01*
X102065052Y-75333909D01*
X102130127Y-75355701D01*
X102222070Y-75387753D01*
X102222517Y-75830127D01*
X102222965Y-75906973D01*
X102226070Y-76056300D01*
X102231623Y-76181010D01*
X102239034Y-76269845D01*
X102247715Y-76311549D01*
X102278772Y-76333855D01*
X102342153Y-76340744D01*
X102411840Y-76330891D01*
X102419828Y-75827271D01*
X102422687Y-75699294D01*
X102428615Y-75547814D01*
X102436366Y-75428996D01*
X102445344Y-75351416D01*
X102454949Y-75323650D01*
X102492411Y-75332436D01*
G36*
X102492411Y-75332436D02*
G01*
X102556443Y-75357532D01*
X102630806Y-75391413D01*
X102630806Y-76370193D01*
X102538416Y-76462583D01*
X102517311Y-76483301D01*
X102458848Y-76529351D01*
X102399887Y-76544267D01*
X102312151Y-76537400D01*
X102276430Y-76532960D01*
X102184302Y-76523568D01*
X102119886Y-76519827D01*
X102100779Y-76520399D01*
X102022391Y-76526592D01*
X101927621Y-76537400D01*
X101897299Y-76541113D01*
X101820912Y-76542573D01*
X101765023Y-76519513D01*
X101701356Y-76462583D01*
X101608966Y-76370193D01*
X101608966Y-75846921D01*
X101609686Y-75692287D01*
X101611930Y-75544857D01*
X101615422Y-75428119D01*
X101619877Y-75351306D01*
X101625014Y-75323650D01*
X101626091Y-75323724D01*
X101663408Y-75337485D01*
X101726458Y-75367810D01*
X101811855Y-75411971D01*
X101819894Y-75871431D01*
X101827932Y-76330891D01*
X102003104Y-76330891D01*
X102011093Y-75827271D01*
X102013625Y-75690370D01*
X102017250Y-75544045D01*
X102021178Y-75427877D01*
X102025081Y-75351275D01*
X102028633Y-75323650D01*
X102029654Y-75323747D01*
X102065052Y-75333909D01*
X102130127Y-75355701D01*
X102222070Y-75387753D01*
X102222517Y-75830127D01*
X102222965Y-75906973D01*
X102226070Y-76056300D01*
X102231623Y-76181010D01*
X102239034Y-76269845D01*
X102247715Y-76311549D01*
X102278772Y-76333855D01*
X102342153Y-76340744D01*
X102411840Y-76330891D01*
X102419828Y-75827271D01*
X102422687Y-75699294D01*
X102428615Y-75547814D01*
X102436366Y-75428996D01*
X102445344Y-75351416D01*
X102454949Y-75323650D01*
X102492411Y-75332436D01*
G37*
X106564886Y-74930463D02*
X106659771Y-74970486D01*
X106659771Y-75760172D01*
X106659770Y-75769386D01*
X106659378Y-75976549D01*
X106658330Y-76162898D01*
X106656723Y-76320919D01*
X106654656Y-76443096D01*
X106652226Y-76521914D01*
X106649530Y-76549857D01*
X106648476Y-76549763D01*
X106612648Y-76539610D01*
X106547346Y-76517805D01*
X106455403Y-76485754D01*
X106455403Y-76074457D01*
X106454819Y-75912851D01*
X106452105Y-75795643D01*
X106445859Y-75715881D01*
X106434681Y-75662997D01*
X106417169Y-75626423D01*
X106391923Y-75595589D01*
X106374711Y-75579191D01*
X106281637Y-75533773D01*
X106179052Y-75537794D01*
X106085044Y-75591498D01*
X106071359Y-75604825D01*
X106049440Y-75632498D01*
X106034441Y-75669080D01*
X106025054Y-75724466D01*
X106019969Y-75808554D01*
X106017878Y-75931239D01*
X106017472Y-76102417D01*
X106017277Y-76189235D01*
X106016011Y-76332031D01*
X106013762Y-76446389D01*
X106010759Y-76522326D01*
X106007231Y-76549857D01*
X106006177Y-76549763D01*
X105970349Y-76539610D01*
X105905047Y-76517805D01*
X105813104Y-76485754D01*
X105813150Y-76072575D01*
X105813219Y-76035792D01*
X105817082Y-75844046D01*
X105828951Y-75699052D01*
X105851726Y-75590976D01*
X105888308Y-75509985D01*
X105941596Y-75446244D01*
X106014491Y-75389921D01*
X106085587Y-75354665D01*
X106199256Y-75327412D01*
X106311061Y-75325864D01*
X106397012Y-75352376D01*
X106403474Y-75356037D01*
X106423402Y-75355645D01*
X106437020Y-75324972D01*
X106446847Y-75254654D01*
X106455403Y-75135323D01*
X106470001Y-74890439D01*
X106564886Y-74930463D01*
G36*
X106564886Y-74930463D02*
G01*
X106659771Y-74970486D01*
X106659771Y-75760172D01*
X106659770Y-75769386D01*
X106659378Y-75976549D01*
X106658330Y-76162898D01*
X106656723Y-76320919D01*
X106654656Y-76443096D01*
X106652226Y-76521914D01*
X106649530Y-76549857D01*
X106648476Y-76549763D01*
X106612648Y-76539610D01*
X106547346Y-76517805D01*
X106455403Y-76485754D01*
X106455403Y-76074457D01*
X106454819Y-75912851D01*
X106452105Y-75795643D01*
X106445859Y-75715881D01*
X106434681Y-75662997D01*
X106417169Y-75626423D01*
X106391923Y-75595589D01*
X106374711Y-75579191D01*
X106281637Y-75533773D01*
X106179052Y-75537794D01*
X106085044Y-75591498D01*
X106071359Y-75604825D01*
X106049440Y-75632498D01*
X106034441Y-75669080D01*
X106025054Y-75724466D01*
X106019969Y-75808554D01*
X106017878Y-75931239D01*
X106017472Y-76102417D01*
X106017277Y-76189235D01*
X106016011Y-76332031D01*
X106013762Y-76446389D01*
X106010759Y-76522326D01*
X106007231Y-76549857D01*
X106006177Y-76549763D01*
X105970349Y-76539610D01*
X105905047Y-76517805D01*
X105813104Y-76485754D01*
X105813150Y-76072575D01*
X105813219Y-76035792D01*
X105817082Y-75844046D01*
X105828951Y-75699052D01*
X105851726Y-75590976D01*
X105888308Y-75509985D01*
X105941596Y-75446244D01*
X106014491Y-75389921D01*
X106085587Y-75354665D01*
X106199256Y-75327412D01*
X106311061Y-75325864D01*
X106397012Y-75352376D01*
X106403474Y-75356037D01*
X106423402Y-75355645D01*
X106437020Y-75324972D01*
X106446847Y-75254654D01*
X106455403Y-75135323D01*
X106470001Y-74890439D01*
X106564886Y-74930463D01*
G37*
X111768966Y-75907558D02*
X111768939Y-75939210D01*
X111767356Y-76080384D01*
X111761917Y-76178751D01*
X111750644Y-76247456D01*
X111731562Y-76299647D01*
X111702695Y-76348470D01*
X111695593Y-76358601D01*
X111620445Y-76438478D01*
X111534821Y-76498719D01*
X111490853Y-76518268D01*
X111332862Y-76550874D01*
X111176614Y-76529783D01*
X111032619Y-76457715D01*
X110911386Y-76337388D01*
X110901151Y-76321269D01*
X110867848Y-76227671D01*
X110845406Y-76097345D01*
X110834517Y-75946837D01*
X110835741Y-75807613D01*
X111130385Y-75807613D01*
X111132707Y-76000486D01*
X111133640Y-76012899D01*
X111147243Y-76119323D01*
X111171466Y-76186812D01*
X111212366Y-76233050D01*
X111280942Y-76276361D01*
X111348765Y-76278638D01*
X111418622Y-76228707D01*
X111430772Y-76215568D01*
X111454576Y-76176251D01*
X111468629Y-76119140D01*
X111475314Y-76030722D01*
X111477012Y-75897485D01*
X111474102Y-75772688D01*
X111459583Y-75653792D01*
X111429611Y-75578650D01*
X111380590Y-75539359D01*
X111308925Y-75528018D01*
X111281633Y-75530273D01*
X111205177Y-75571626D01*
X111154651Y-75664366D01*
X111130385Y-75807613D01*
X110835741Y-75807613D01*
X110835872Y-75792693D01*
X110850162Y-75651458D01*
X110878076Y-75539679D01*
X110913950Y-75465232D01*
X111014940Y-75349434D01*
X111151780Y-75277481D01*
X111319284Y-75252747D01*
X111364020Y-75254085D01*
X111495759Y-75281474D01*
X111603969Y-75350473D01*
X111703277Y-75469330D01*
X111709185Y-75478147D01*
X111735922Y-75525574D01*
X111753313Y-75579180D01*
X111763313Y-75652015D01*
X111767879Y-75757125D01*
X111768894Y-75897485D01*
X111768966Y-75907558D01*
G36*
X111768966Y-75907558D02*
G01*
X111768939Y-75939210D01*
X111767356Y-76080384D01*
X111761917Y-76178751D01*
X111750644Y-76247456D01*
X111731562Y-76299647D01*
X111702695Y-76348470D01*
X111695593Y-76358601D01*
X111620445Y-76438478D01*
X111534821Y-76498719D01*
X111490853Y-76518268D01*
X111332862Y-76550874D01*
X111176614Y-76529783D01*
X111032619Y-76457715D01*
X110911386Y-76337388D01*
X110901151Y-76321269D01*
X110867848Y-76227671D01*
X110845406Y-76097345D01*
X110834517Y-75946837D01*
X110835741Y-75807613D01*
X111130385Y-75807613D01*
X111132707Y-76000486D01*
X111133640Y-76012899D01*
X111147243Y-76119323D01*
X111171466Y-76186812D01*
X111212366Y-76233050D01*
X111280942Y-76276361D01*
X111348765Y-76278638D01*
X111418622Y-76228707D01*
X111430772Y-76215568D01*
X111454576Y-76176251D01*
X111468629Y-76119140D01*
X111475314Y-76030722D01*
X111477012Y-75897485D01*
X111474102Y-75772688D01*
X111459583Y-75653792D01*
X111429611Y-75578650D01*
X111380590Y-75539359D01*
X111308925Y-75528018D01*
X111281633Y-75530273D01*
X111205177Y-75571626D01*
X111154651Y-75664366D01*
X111130385Y-75807613D01*
X110835741Y-75807613D01*
X110835872Y-75792693D01*
X110850162Y-75651458D01*
X110878076Y-75539679D01*
X110913950Y-75465232D01*
X111014940Y-75349434D01*
X111151780Y-75277481D01*
X111319284Y-75252747D01*
X111364020Y-75254085D01*
X111495759Y-75281474D01*
X111603969Y-75350473D01*
X111703277Y-75469330D01*
X111709185Y-75478147D01*
X111735922Y-75525574D01*
X111753313Y-75579180D01*
X111763313Y-75652015D01*
X111767879Y-75757125D01*
X111768894Y-75897485D01*
X111768966Y-75907558D01*
G37*
X99448314Y-75942602D02*
X99447745Y-76020412D01*
X99440613Y-76173720D01*
X99421949Y-76285907D01*
X99387538Y-76369020D01*
X99333163Y-76435107D01*
X99254611Y-76496213D01*
X99204631Y-76524001D01*
X99124514Y-76542717D01*
X99011971Y-76541240D01*
X98949051Y-76535311D01*
X98873154Y-76517208D01*
X98812488Y-76477857D01*
X98741913Y-76404532D01*
X98732483Y-76393822D01*
X98669035Y-76311404D01*
X98638763Y-76239622D01*
X98631035Y-76154500D01*
X98631035Y-76029412D01*
X98718448Y-76062406D01*
X98782176Y-76100975D01*
X98837568Y-76191474D01*
X98849132Y-76220449D01*
X98913789Y-76302507D01*
X99001805Y-76343813D01*
X99097638Y-76340099D01*
X99185748Y-76287098D01*
X99216029Y-76254048D01*
X99243490Y-76204186D01*
X99234900Y-76158882D01*
X99185464Y-76112256D01*
X99090390Y-76058424D01*
X98944886Y-75991505D01*
X98645633Y-75860522D01*
X98637692Y-75730764D01*
X98640677Y-75648115D01*
X98835653Y-75648115D01*
X98850454Y-75699281D01*
X98917798Y-75753908D01*
X99040028Y-75816063D01*
X99060254Y-75825067D01*
X99156971Y-75866959D01*
X99229335Y-75896424D01*
X99262962Y-75907558D01*
X99268057Y-75899362D01*
X99270102Y-75849319D01*
X99262813Y-75768880D01*
X99244453Y-75690219D01*
X99187189Y-75591117D01*
X99104525Y-75535274D01*
X99005785Y-75527716D01*
X98900290Y-75573466D01*
X98871054Y-75596342D01*
X98835653Y-75648115D01*
X98640677Y-75648115D01*
X98641197Y-75633721D01*
X98685337Y-75511083D01*
X98741051Y-75443500D01*
X98856562Y-75368006D01*
X98993589Y-75329869D01*
X99135238Y-75332888D01*
X99264618Y-75380859D01*
X99293100Y-75399279D01*
X99358429Y-75456277D01*
X99403107Y-75528382D01*
X99430642Y-75626319D01*
X99444542Y-75760817D01*
X99446379Y-75849319D01*
X99448314Y-75942602D01*
G36*
X99448314Y-75942602D02*
G01*
X99447745Y-76020412D01*
X99440613Y-76173720D01*
X99421949Y-76285907D01*
X99387538Y-76369020D01*
X99333163Y-76435107D01*
X99254611Y-76496213D01*
X99204631Y-76524001D01*
X99124514Y-76542717D01*
X99011971Y-76541240D01*
X98949051Y-76535311D01*
X98873154Y-76517208D01*
X98812488Y-76477857D01*
X98741913Y-76404532D01*
X98732483Y-76393822D01*
X98669035Y-76311404D01*
X98638763Y-76239622D01*
X98631035Y-76154500D01*
X98631035Y-76029412D01*
X98718448Y-76062406D01*
X98782176Y-76100975D01*
X98837568Y-76191474D01*
X98849132Y-76220449D01*
X98913789Y-76302507D01*
X99001805Y-76343813D01*
X99097638Y-76340099D01*
X99185748Y-76287098D01*
X99216029Y-76254048D01*
X99243490Y-76204186D01*
X99234900Y-76158882D01*
X99185464Y-76112256D01*
X99090390Y-76058424D01*
X98944886Y-75991505D01*
X98645633Y-75860522D01*
X98637692Y-75730764D01*
X98640677Y-75648115D01*
X98835653Y-75648115D01*
X98850454Y-75699281D01*
X98917798Y-75753908D01*
X99040028Y-75816063D01*
X99060254Y-75825067D01*
X99156971Y-75866959D01*
X99229335Y-75896424D01*
X99262962Y-75907558D01*
X99268057Y-75899362D01*
X99270102Y-75849319D01*
X99262813Y-75768880D01*
X99244453Y-75690219D01*
X99187189Y-75591117D01*
X99104525Y-75535274D01*
X99005785Y-75527716D01*
X98900290Y-75573466D01*
X98871054Y-75596342D01*
X98835653Y-75648115D01*
X98640677Y-75648115D01*
X98641197Y-75633721D01*
X98685337Y-75511083D01*
X98741051Y-75443500D01*
X98856562Y-75368006D01*
X98993589Y-75329869D01*
X99135238Y-75332888D01*
X99264618Y-75380859D01*
X99293100Y-75399279D01*
X99358429Y-75456277D01*
X99403107Y-75528382D01*
X99430642Y-75626319D01*
X99444542Y-75760817D01*
X99446379Y-75849319D01*
X99448314Y-75942602D01*
G37*
X103652554Y-75936753D02*
X103650220Y-76050601D01*
X103633740Y-76205786D01*
X103597884Y-76322078D01*
X103538456Y-76410877D01*
X103451258Y-76483585D01*
X103368196Y-76525616D01*
X103228710Y-76549004D01*
X103089413Y-76523431D01*
X102963511Y-76452160D01*
X102864211Y-76338457D01*
X102852220Y-76317490D01*
X102836385Y-76280757D01*
X102824639Y-76233881D01*
X102816379Y-76168821D01*
X102810999Y-76077536D01*
X102807893Y-75951985D01*
X102807798Y-75940845D01*
X103010346Y-75940845D01*
X103011036Y-76047110D01*
X103015401Y-76143228D01*
X103026193Y-76205277D01*
X103046127Y-76246968D01*
X103077917Y-76282009D01*
X103085365Y-76288745D01*
X103181061Y-76338458D01*
X103282313Y-76333371D01*
X103376615Y-76273828D01*
X103404695Y-76242980D01*
X103428197Y-76202084D01*
X103441323Y-76145546D01*
X103447031Y-76059123D01*
X103448277Y-75928572D01*
X103447662Y-75828953D01*
X103443408Y-75731717D01*
X103432683Y-75668968D01*
X103412708Y-75626848D01*
X103380705Y-75591498D01*
X103361906Y-75575580D01*
X103264493Y-75532701D01*
X103162438Y-75539451D01*
X103073826Y-75595589D01*
X103054750Y-75617848D01*
X103031487Y-75659759D01*
X103018037Y-75718288D01*
X103011842Y-75807346D01*
X103010346Y-75940845D01*
X102807798Y-75940845D01*
X102806458Y-75784127D01*
X102806087Y-75565921D01*
X102805978Y-74888538D01*
X102900863Y-74928285D01*
X102925950Y-74939165D01*
X102965882Y-74963734D01*
X102988740Y-75000941D01*
X103001302Y-75066007D01*
X103010346Y-75174153D01*
X103018606Y-75271254D01*
X103029524Y-75335001D01*
X103045166Y-75358789D01*
X103068737Y-75352409D01*
X103128802Y-75329991D01*
X103236146Y-75324433D01*
X103351625Y-75345194D01*
X103451258Y-75389921D01*
X103506073Y-75431322D01*
X103576453Y-75512098D01*
X103621529Y-75615661D01*
X103645497Y-75753413D01*
X103652240Y-75928572D01*
X103652554Y-75936753D01*
G36*
X103652554Y-75936753D02*
G01*
X103650220Y-76050601D01*
X103633740Y-76205786D01*
X103597884Y-76322078D01*
X103538456Y-76410877D01*
X103451258Y-76483585D01*
X103368196Y-76525616D01*
X103228710Y-76549004D01*
X103089413Y-76523431D01*
X102963511Y-76452160D01*
X102864211Y-76338457D01*
X102852220Y-76317490D01*
X102836385Y-76280757D01*
X102824639Y-76233881D01*
X102816379Y-76168821D01*
X102810999Y-76077536D01*
X102807893Y-75951985D01*
X102807798Y-75940845D01*
X103010346Y-75940845D01*
X103011036Y-76047110D01*
X103015401Y-76143228D01*
X103026193Y-76205277D01*
X103046127Y-76246968D01*
X103077917Y-76282009D01*
X103085365Y-76288745D01*
X103181061Y-76338458D01*
X103282313Y-76333371D01*
X103376615Y-76273828D01*
X103404695Y-76242980D01*
X103428197Y-76202084D01*
X103441323Y-76145546D01*
X103447031Y-76059123D01*
X103448277Y-75928572D01*
X103447662Y-75828953D01*
X103443408Y-75731717D01*
X103432683Y-75668968D01*
X103412708Y-75626848D01*
X103380705Y-75591498D01*
X103361906Y-75575580D01*
X103264493Y-75532701D01*
X103162438Y-75539451D01*
X103073826Y-75595589D01*
X103054750Y-75617848D01*
X103031487Y-75659759D01*
X103018037Y-75718288D01*
X103011842Y-75807346D01*
X103010346Y-75940845D01*
X102807798Y-75940845D01*
X102806458Y-75784127D01*
X102806087Y-75565921D01*
X102805978Y-74888538D01*
X102900863Y-74928285D01*
X102925950Y-74939165D01*
X102965882Y-74963734D01*
X102988740Y-75000941D01*
X103001302Y-75066007D01*
X103010346Y-75174153D01*
X103018606Y-75271254D01*
X103029524Y-75335001D01*
X103045166Y-75358789D01*
X103068737Y-75352409D01*
X103128802Y-75329991D01*
X103236146Y-75324433D01*
X103351625Y-75345194D01*
X103451258Y-75389921D01*
X103506073Y-75431322D01*
X103576453Y-75512098D01*
X103621529Y-75615661D01*
X103645497Y-75753413D01*
X103652240Y-75928572D01*
X103652554Y-75936753D01*
G37*
X109549453Y-75824795D02*
X109540169Y-76046105D01*
X109534927Y-76092992D01*
X109495869Y-76259875D01*
X109425291Y-76386792D01*
X109317956Y-76484068D01*
X109311889Y-76488082D01*
X109175441Y-76545172D01*
X109032974Y-76550252D01*
X108895697Y-76506777D01*
X108774820Y-76418200D01*
X108681553Y-76287975D01*
X108679987Y-76284835D01*
X108648994Y-76203967D01*
X108626293Y-76112059D01*
X108614251Y-76025777D01*
X108615238Y-75961787D01*
X108631624Y-75936753D01*
X108646180Y-75938275D01*
X108715793Y-75965962D01*
X108794698Y-76016875D01*
X108861821Y-76075809D01*
X108896088Y-76127560D01*
X108931708Y-76197757D01*
X109004712Y-76261604D01*
X109089486Y-76287098D01*
X109120559Y-76279727D01*
X109181892Y-76242620D01*
X109235316Y-76191110D01*
X109258162Y-76144379D01*
X109258155Y-76144206D01*
X109232234Y-76122746D01*
X109163128Y-76084031D01*
X109061250Y-76033503D01*
X108937012Y-75976600D01*
X108936329Y-75976299D01*
X108801356Y-75916204D01*
X108710885Y-75872906D01*
X108656040Y-75839645D01*
X108627945Y-75809660D01*
X108617725Y-75776192D01*
X108616504Y-75732481D01*
X108624997Y-75649710D01*
X108913220Y-75649710D01*
X108942971Y-75675731D01*
X109017102Y-75714722D01*
X109019275Y-75715825D01*
X109106734Y-75757475D01*
X109184975Y-75790701D01*
X109234612Y-75804757D01*
X109254522Y-75785969D01*
X109258162Y-75721590D01*
X109243036Y-75641467D01*
X109190598Y-75568655D01*
X109114678Y-75530905D01*
X109030041Y-75534717D01*
X108951448Y-75586587D01*
X108920556Y-75622431D01*
X108913220Y-75649710D01*
X108624997Y-75649710D01*
X108627252Y-75627731D01*
X108680390Y-75485415D01*
X108769343Y-75373577D01*
X108884449Y-75296142D01*
X109016046Y-75257034D01*
X109154473Y-75260177D01*
X109290066Y-75309496D01*
X109413165Y-75408913D01*
X109481367Y-75507295D01*
X109530357Y-75647727D01*
X109538323Y-75721590D01*
X109549453Y-75824795D01*
G36*
X109549453Y-75824795D02*
G01*
X109540169Y-76046105D01*
X109534927Y-76092992D01*
X109495869Y-76259875D01*
X109425291Y-76386792D01*
X109317956Y-76484068D01*
X109311889Y-76488082D01*
X109175441Y-76545172D01*
X109032974Y-76550252D01*
X108895697Y-76506777D01*
X108774820Y-76418200D01*
X108681553Y-76287975D01*
X108679987Y-76284835D01*
X108648994Y-76203967D01*
X108626293Y-76112059D01*
X108614251Y-76025777D01*
X108615238Y-75961787D01*
X108631624Y-75936753D01*
X108646180Y-75938275D01*
X108715793Y-75965962D01*
X108794698Y-76016875D01*
X108861821Y-76075809D01*
X108896088Y-76127560D01*
X108931708Y-76197757D01*
X109004712Y-76261604D01*
X109089486Y-76287098D01*
X109120559Y-76279727D01*
X109181892Y-76242620D01*
X109235316Y-76191110D01*
X109258162Y-76144379D01*
X109258155Y-76144206D01*
X109232234Y-76122746D01*
X109163128Y-76084031D01*
X109061250Y-76033503D01*
X108937012Y-75976600D01*
X108936329Y-75976299D01*
X108801356Y-75916204D01*
X108710885Y-75872906D01*
X108656040Y-75839645D01*
X108627945Y-75809660D01*
X108617725Y-75776192D01*
X108616504Y-75732481D01*
X108624997Y-75649710D01*
X108913220Y-75649710D01*
X108942971Y-75675731D01*
X109017102Y-75714722D01*
X109019275Y-75715825D01*
X109106734Y-75757475D01*
X109184975Y-75790701D01*
X109234612Y-75804757D01*
X109254522Y-75785969D01*
X109258162Y-75721590D01*
X109243036Y-75641467D01*
X109190598Y-75568655D01*
X109114678Y-75530905D01*
X109030041Y-75534717D01*
X108951448Y-75586587D01*
X108920556Y-75622431D01*
X108913220Y-75649710D01*
X108624997Y-75649710D01*
X108627252Y-75627731D01*
X108680390Y-75485415D01*
X108769343Y-75373577D01*
X108884449Y-75296142D01*
X109016046Y-75257034D01*
X109154473Y-75260177D01*
X109290066Y-75309496D01*
X109413165Y-75408913D01*
X109481367Y-75507295D01*
X109530357Y-75647727D01*
X109538323Y-75721590D01*
X109549453Y-75824795D01*
G37*
X105379996Y-75355140D02*
X105480356Y-75413657D01*
X105524506Y-75459250D01*
X105609348Y-75595538D01*
X105637932Y-75744124D01*
X105637932Y-75846348D01*
X105543964Y-75806838D01*
X105478978Y-75766970D01*
X105427764Y-75684200D01*
X105422505Y-75667135D01*
X105365904Y-75580190D01*
X105280595Y-75533224D01*
X105182642Y-75531207D01*
X105088107Y-75579110D01*
X105073994Y-75591464D01*
X105026798Y-75645149D01*
X105019004Y-75691954D01*
X105054707Y-75737912D01*
X105138004Y-75789054D01*
X105272989Y-75851414D01*
X105282119Y-75855363D01*
X105431970Y-75925238D01*
X105534317Y-75987138D01*
X105597321Y-76048942D01*
X105629139Y-76118528D01*
X105637932Y-76203774D01*
X105626410Y-76298282D01*
X105568229Y-76419251D01*
X105465876Y-76506154D01*
X105391844Y-76532244D01*
X105287368Y-76546521D01*
X105185918Y-76543472D01*
X105113473Y-76521933D01*
X105105778Y-76516570D01*
X105085342Y-76479098D01*
X105099523Y-76413057D01*
X105124162Y-76361219D01*
X105163671Y-76339638D01*
X105238603Y-76340712D01*
X105342631Y-76334521D01*
X105410606Y-76291777D01*
X105433564Y-76212655D01*
X105433543Y-76210382D01*
X105419630Y-76164452D01*
X105372304Y-76122311D01*
X105280288Y-76073738D01*
X105155152Y-76015256D01*
X105072269Y-75983441D01*
X105024421Y-75985491D01*
X105002064Y-76027517D01*
X104995650Y-76115628D01*
X104995633Y-76255935D01*
X104994918Y-76342547D01*
X104991636Y-76449507D01*
X104986301Y-76522716D01*
X104979586Y-76549857D01*
X104977791Y-76549672D01*
X104938983Y-76534964D01*
X104874710Y-76503922D01*
X104785881Y-76457987D01*
X104796437Y-76044094D01*
X104797172Y-76016645D01*
X104805556Y-75823983D01*
X104820367Y-75678775D01*
X104844630Y-75571353D01*
X104881365Y-75492050D01*
X104933598Y-75431196D01*
X105004349Y-75379124D01*
X105005658Y-75378308D01*
X105120057Y-75335826D01*
X105252366Y-75328650D01*
X105379996Y-75355140D01*
G36*
X105379996Y-75355140D02*
G01*
X105480356Y-75413657D01*
X105524506Y-75459250D01*
X105609348Y-75595538D01*
X105637932Y-75744124D01*
X105637932Y-75846348D01*
X105543964Y-75806838D01*
X105478978Y-75766970D01*
X105427764Y-75684200D01*
X105422505Y-75667135D01*
X105365904Y-75580190D01*
X105280595Y-75533224D01*
X105182642Y-75531207D01*
X105088107Y-75579110D01*
X105073994Y-75591464D01*
X105026798Y-75645149D01*
X105019004Y-75691954D01*
X105054707Y-75737912D01*
X105138004Y-75789054D01*
X105272989Y-75851414D01*
X105282119Y-75855363D01*
X105431970Y-75925238D01*
X105534317Y-75987138D01*
X105597321Y-76048942D01*
X105629139Y-76118528D01*
X105637932Y-76203774D01*
X105626410Y-76298282D01*
X105568229Y-76419251D01*
X105465876Y-76506154D01*
X105391844Y-76532244D01*
X105287368Y-76546521D01*
X105185918Y-76543472D01*
X105113473Y-76521933D01*
X105105778Y-76516570D01*
X105085342Y-76479098D01*
X105099523Y-76413057D01*
X105124162Y-76361219D01*
X105163671Y-76339638D01*
X105238603Y-76340712D01*
X105342631Y-76334521D01*
X105410606Y-76291777D01*
X105433564Y-76212655D01*
X105433543Y-76210382D01*
X105419630Y-76164452D01*
X105372304Y-76122311D01*
X105280288Y-76073738D01*
X105155152Y-76015256D01*
X105072269Y-75983441D01*
X105024421Y-75985491D01*
X105002064Y-76027517D01*
X104995650Y-76115628D01*
X104995633Y-76255935D01*
X104994918Y-76342547D01*
X104991636Y-76449507D01*
X104986301Y-76522716D01*
X104979586Y-76549857D01*
X104977791Y-76549672D01*
X104938983Y-76534964D01*
X104874710Y-76503922D01*
X104785881Y-76457987D01*
X104796437Y-76044094D01*
X104797172Y-76016645D01*
X104805556Y-75823983D01*
X104820367Y-75678775D01*
X104844630Y-75571353D01*
X104881365Y-75492050D01*
X104933598Y-75431196D01*
X105004349Y-75379124D01*
X105005658Y-75378308D01*
X105120057Y-75335826D01*
X105252366Y-75328650D01*
X105379996Y-75355140D01*
G37*
X101111629Y-75326276D02*
X101174195Y-75342168D01*
X101232447Y-75381788D01*
X101307419Y-75455542D01*
X101355634Y-75507629D01*
X101405859Y-75575252D01*
X101428511Y-75638634D01*
X101433794Y-75719050D01*
X101433794Y-75850667D01*
X101344036Y-75804251D01*
X101272905Y-75747691D01*
X101224184Y-75671506D01*
X101215815Y-75650792D01*
X101152057Y-75570507D01*
X101063471Y-75530250D01*
X100966874Y-75534168D01*
X100879081Y-75586409D01*
X100841937Y-75628836D01*
X100820301Y-75683113D01*
X100843462Y-75731420D01*
X100915480Y-75780011D01*
X101040411Y-75835143D01*
X101059369Y-75842758D01*
X101173106Y-75892591D01*
X101270707Y-75941731D01*
X101332804Y-75980546D01*
X101395000Y-76049877D01*
X101436347Y-76160517D01*
X101431958Y-76279248D01*
X101383038Y-76391614D01*
X101290798Y-76483156D01*
X101216111Y-76522124D01*
X101071833Y-76549410D01*
X100991657Y-76545729D01*
X100917436Y-76525826D01*
X100888961Y-76484064D01*
X100899609Y-76415286D01*
X100902706Y-76406192D01*
X100927269Y-76357964D01*
X100968166Y-76339711D01*
X101046080Y-76340932D01*
X101101092Y-76342592D01*
X101165460Y-76328347D01*
X101209562Y-76285758D01*
X101234681Y-76233323D01*
X101237482Y-76178395D01*
X101237353Y-76178074D01*
X101204786Y-76148394D01*
X101135084Y-76105201D01*
X101044899Y-76056927D01*
X100950884Y-76012005D01*
X100869690Y-75978868D01*
X100817969Y-75965949D01*
X100810275Y-75978600D01*
X100800589Y-76038134D01*
X100793955Y-76135353D01*
X100791495Y-76257903D01*
X100790923Y-76342729D01*
X100788226Y-76449560D01*
X100783822Y-76522723D01*
X100778271Y-76549857D01*
X100749255Y-76540738D01*
X100690685Y-76515975D01*
X100616323Y-76482093D01*
X100616323Y-76047399D01*
X100616798Y-75935974D01*
X100621294Y-75766767D01*
X100632748Y-75641235D01*
X100653829Y-75549829D01*
X100687207Y-75482998D01*
X100735551Y-75431192D01*
X100801532Y-75384859D01*
X100885595Y-75346622D01*
X101040808Y-75323650D01*
X101111629Y-75326276D01*
G36*
X101111629Y-75326276D02*
G01*
X101174195Y-75342168D01*
X101232447Y-75381788D01*
X101307419Y-75455542D01*
X101355634Y-75507629D01*
X101405859Y-75575252D01*
X101428511Y-75638634D01*
X101433794Y-75719050D01*
X101433794Y-75850667D01*
X101344036Y-75804251D01*
X101272905Y-75747691D01*
X101224184Y-75671506D01*
X101215815Y-75650792D01*
X101152057Y-75570507D01*
X101063471Y-75530250D01*
X100966874Y-75534168D01*
X100879081Y-75586409D01*
X100841937Y-75628836D01*
X100820301Y-75683113D01*
X100843462Y-75731420D01*
X100915480Y-75780011D01*
X101040411Y-75835143D01*
X101059369Y-75842758D01*
X101173106Y-75892591D01*
X101270707Y-75941731D01*
X101332804Y-75980546D01*
X101395000Y-76049877D01*
X101436347Y-76160517D01*
X101431958Y-76279248D01*
X101383038Y-76391614D01*
X101290798Y-76483156D01*
X101216111Y-76522124D01*
X101071833Y-76549410D01*
X100991657Y-76545729D01*
X100917436Y-76525826D01*
X100888961Y-76484064D01*
X100899609Y-76415286D01*
X100902706Y-76406192D01*
X100927269Y-76357964D01*
X100968166Y-76339711D01*
X101046080Y-76340932D01*
X101101092Y-76342592D01*
X101165460Y-76328347D01*
X101209562Y-76285758D01*
X101234681Y-76233323D01*
X101237482Y-76178395D01*
X101237353Y-76178074D01*
X101204786Y-76148394D01*
X101135084Y-76105201D01*
X101044899Y-76056927D01*
X100950884Y-76012005D01*
X100869690Y-75978868D01*
X100817969Y-75965949D01*
X100810275Y-75978600D01*
X100800589Y-76038134D01*
X100793955Y-76135353D01*
X100791495Y-76257903D01*
X100790923Y-76342729D01*
X100788226Y-76449560D01*
X100783822Y-76522723D01*
X100778271Y-76549857D01*
X100749255Y-76540738D01*
X100690685Y-76515975D01*
X100616323Y-76482093D01*
X100616323Y-76047399D01*
X100616798Y-75935974D01*
X100621294Y-75766767D01*
X100632748Y-75641235D01*
X100653829Y-75549829D01*
X100687207Y-75482998D01*
X100735551Y-75431192D01*
X100801532Y-75384859D01*
X100885595Y-75346622D01*
X101040808Y-75323650D01*
X101111629Y-75326276D01*
G37*
X110650779Y-76040968D02*
X110653669Y-76265202D01*
X110654472Y-76330251D01*
X110657041Y-76547726D01*
X110657557Y-76714138D01*
X110654438Y-76835312D01*
X110646101Y-76917073D01*
X110630963Y-76965247D01*
X110607442Y-76985660D01*
X110573957Y-76984138D01*
X110528924Y-76966505D01*
X110470762Y-76938587D01*
X110458333Y-76932630D01*
X110406579Y-76903472D01*
X110379551Y-76868780D01*
X110369208Y-76810936D01*
X110367510Y-76712323D01*
X110367434Y-76535259D01*
X110185039Y-76535259D01*
X110072841Y-76530346D01*
X109984621Y-76510419D01*
X109911359Y-76470144D01*
X109905897Y-76466207D01*
X109831559Y-76399709D01*
X109779824Y-76319374D01*
X109747197Y-76214224D01*
X109730183Y-76073281D01*
X109726031Y-75914054D01*
X110017242Y-75914054D01*
X110017292Y-75940742D01*
X110020065Y-76061204D01*
X110028968Y-76139950D01*
X110046618Y-76191084D01*
X110075633Y-76228707D01*
X110077441Y-76230504D01*
X110148754Y-76279186D01*
X110217866Y-76274387D01*
X110295926Y-76215437D01*
X110315020Y-76195289D01*
X110343143Y-76153981D01*
X110359001Y-76100253D01*
X110366010Y-76018792D01*
X110367587Y-75894287D01*
X110366221Y-75818911D01*
X110351403Y-75681828D01*
X110317580Y-75592014D01*
X110261390Y-75542926D01*
X110179473Y-75528018D01*
X110144957Y-75531195D01*
X110085236Y-75562720D01*
X110045753Y-75632971D01*
X110023943Y-75748049D01*
X110017242Y-75914054D01*
X109726031Y-75914054D01*
X109725288Y-75885567D01*
X109726372Y-75748588D01*
X109731308Y-75644830D01*
X109742273Y-75572878D01*
X109761439Y-75518966D01*
X109790978Y-75469330D01*
X109818093Y-75431397D01*
X109916551Y-75328988D01*
X110028101Y-75273369D01*
X110168247Y-75255763D01*
X110328636Y-75273313D01*
X110467289Y-75336263D01*
X110576952Y-75447290D01*
X110585219Y-75459044D01*
X110604500Y-75490279D01*
X110619270Y-75525973D01*
X110630255Y-75573830D01*
X110638175Y-75641553D01*
X110643754Y-75736848D01*
X110647714Y-75867418D01*
X110648189Y-75894287D01*
X110650779Y-76040968D01*
G36*
X110650779Y-76040968D02*
G01*
X110653669Y-76265202D01*
X110654472Y-76330251D01*
X110657041Y-76547726D01*
X110657557Y-76714138D01*
X110654438Y-76835312D01*
X110646101Y-76917073D01*
X110630963Y-76965247D01*
X110607442Y-76985660D01*
X110573957Y-76984138D01*
X110528924Y-76966505D01*
X110470762Y-76938587D01*
X110458333Y-76932630D01*
X110406579Y-76903472D01*
X110379551Y-76868780D01*
X110369208Y-76810936D01*
X110367510Y-76712323D01*
X110367434Y-76535259D01*
X110185039Y-76535259D01*
X110072841Y-76530346D01*
X109984621Y-76510419D01*
X109911359Y-76470144D01*
X109905897Y-76466207D01*
X109831559Y-76399709D01*
X109779824Y-76319374D01*
X109747197Y-76214224D01*
X109730183Y-76073281D01*
X109726031Y-75914054D01*
X110017242Y-75914054D01*
X110017292Y-75940742D01*
X110020065Y-76061204D01*
X110028968Y-76139950D01*
X110046618Y-76191084D01*
X110075633Y-76228707D01*
X110077441Y-76230504D01*
X110148754Y-76279186D01*
X110217866Y-76274387D01*
X110295926Y-76215437D01*
X110315020Y-76195289D01*
X110343143Y-76153981D01*
X110359001Y-76100253D01*
X110366010Y-76018792D01*
X110367587Y-75894287D01*
X110366221Y-75818911D01*
X110351403Y-75681828D01*
X110317580Y-75592014D01*
X110261390Y-75542926D01*
X110179473Y-75528018D01*
X110144957Y-75531195D01*
X110085236Y-75562720D01*
X110045753Y-75632971D01*
X110023943Y-75748049D01*
X110017242Y-75914054D01*
X109726031Y-75914054D01*
X109725288Y-75885567D01*
X109726372Y-75748588D01*
X109731308Y-75644830D01*
X109742273Y-75572878D01*
X109761439Y-75518966D01*
X109790978Y-75469330D01*
X109818093Y-75431397D01*
X109916551Y-75328988D01*
X110028101Y-75273369D01*
X110168247Y-75255763D01*
X110328636Y-75273313D01*
X110467289Y-75336263D01*
X110576952Y-75447290D01*
X110585219Y-75459044D01*
X110604500Y-75490279D01*
X110619270Y-75525973D01*
X110630255Y-75573830D01*
X110638175Y-75641553D01*
X110643754Y-75736848D01*
X110647714Y-75867418D01*
X110648189Y-75894287D01*
X110650779Y-76040968D01*
G37*
X105429176Y-65864511D02*
X105581896Y-65865505D01*
X105691793Y-65868059D01*
X105766236Y-65872911D01*
X105812595Y-65880797D01*
X105838240Y-65892454D01*
X105850540Y-65908619D01*
X105856866Y-65930029D01*
X105857048Y-65930798D01*
X105867442Y-65981129D01*
X105886340Y-66078354D01*
X105911803Y-66212276D01*
X105941891Y-66372701D01*
X105974665Y-66549433D01*
X105977338Y-66563894D01*
X106010011Y-66735425D01*
X106040414Y-66886091D01*
X106066569Y-67006733D01*
X106086497Y-67088195D01*
X106098221Y-67121318D01*
X106098283Y-67121371D01*
X106135230Y-67139695D01*
X106211058Y-67170143D01*
X106309426Y-67206151D01*
X106314966Y-67208106D01*
X106440725Y-67255636D01*
X106587012Y-67315249D01*
X106723294Y-67374522D01*
X106947391Y-67476231D01*
X107443619Y-67137363D01*
X107478571Y-67113529D01*
X107628281Y-67012221D01*
X107761868Y-66923041D01*
X107871344Y-66851239D01*
X107948719Y-66802069D01*
X107986005Y-66780783D01*
X108011553Y-66785662D01*
X108069556Y-66823468D01*
X108159196Y-66898336D01*
X108282958Y-67012369D01*
X108443329Y-67167671D01*
X108457680Y-67181807D01*
X108584934Y-67308465D01*
X108697970Y-67423211D01*
X108789868Y-67518857D01*
X108853708Y-67588212D01*
X108882571Y-67624086D01*
X108882665Y-67624260D01*
X108886332Y-67651572D01*
X108872809Y-67695874D01*
X108838685Y-67763227D01*
X108780549Y-67859692D01*
X108694989Y-67991329D01*
X108578595Y-68164200D01*
X108558760Y-68193378D01*
X108458446Y-68341192D01*
X108369924Y-68472043D01*
X108298466Y-68578109D01*
X108249344Y-68651568D01*
X108227832Y-68684596D01*
X108226209Y-68691592D01*
X108236388Y-68743792D01*
X108266880Y-68829027D01*
X108312713Y-68932757D01*
X108375001Y-69068417D01*
X108444549Y-69229387D01*
X108503610Y-69375087D01*
X108518253Y-69412799D01*
X108556601Y-69509088D01*
X108584771Y-69576170D01*
X108597498Y-69601351D01*
X108611546Y-69603233D01*
X108674682Y-69614117D01*
X108778020Y-69632915D01*
X108910810Y-69657581D01*
X109062298Y-69686070D01*
X109221733Y-69716339D01*
X109378362Y-69746341D01*
X109521434Y-69774032D01*
X109640196Y-69797366D01*
X109723897Y-69814299D01*
X109761783Y-69822786D01*
X109768064Y-69825179D01*
X109783374Y-69838085D01*
X109794764Y-69865562D01*
X109802804Y-69914912D01*
X109808065Y-69993439D01*
X109811117Y-70108446D01*
X109812530Y-70267236D01*
X109812874Y-70477111D01*
X109812874Y-71115372D01*
X109659599Y-71145626D01*
X109641058Y-71149251D01*
X109542597Y-71168035D01*
X109406449Y-71193559D01*
X109248088Y-71222934D01*
X109082989Y-71253272D01*
X109017974Y-71265475D01*
X108872698Y-71295163D01*
X108751627Y-71323236D01*
X108665887Y-71347002D01*
X108626602Y-71363767D01*
X108608800Y-71391160D01*
X108576390Y-71463640D01*
X108543235Y-71557443D01*
X108531565Y-71592569D01*
X108488605Y-71707875D01*
X108433193Y-71844342D01*
X108374354Y-71979420D01*
X108342885Y-72049975D01*
X108298052Y-72155361D01*
X108267241Y-72234284D01*
X108255786Y-72273519D01*
X108256423Y-72276480D01*
X108278151Y-72318105D01*
X108327147Y-72398435D01*
X108398439Y-72509686D01*
X108487055Y-72644071D01*
X108588024Y-72793806D01*
X108920262Y-73281397D01*
X108483772Y-73718615D01*
X108441556Y-73760687D01*
X108312471Y-73886619D01*
X108197108Y-73995220D01*
X108102225Y-74080369D01*
X108034583Y-74135948D01*
X108000939Y-74155834D01*
X107964403Y-74140704D01*
X107887891Y-74097267D01*
X107780197Y-74030736D01*
X107649768Y-73946333D01*
X107505053Y-73849282D01*
X107362911Y-73753430D01*
X107234679Y-73669023D01*
X107130055Y-73602316D01*
X107057172Y-73558490D01*
X107024159Y-73542730D01*
X107022224Y-73542874D01*
X106978370Y-73558411D01*
X106900599Y-73594587D01*
X106804393Y-73644251D01*
X106803382Y-73644795D01*
X106675606Y-73708792D01*
X106588052Y-73740057D01*
X106533727Y-73740143D01*
X106505642Y-73710604D01*
X106493753Y-73681527D01*
X106461669Y-73603654D01*
X106412248Y-73483941D01*
X106348119Y-73328752D01*
X106271912Y-73144450D01*
X106186256Y-72937399D01*
X106093782Y-72713962D01*
X106009963Y-72510692D01*
X105924679Y-72302115D01*
X105849223Y-72115729D01*
X105786127Y-71957873D01*
X105737924Y-71834885D01*
X105707145Y-71753105D01*
X105696323Y-71718872D01*
X105716992Y-71687481D01*
X105774410Y-71635068D01*
X105855689Y-71574170D01*
X106050821Y-71414853D01*
X106225446Y-71211273D01*
X106353236Y-70987274D01*
X106433403Y-70749469D01*
X106465161Y-70504473D01*
X106447723Y-70258899D01*
X106380302Y-70019361D01*
X106262112Y-69792473D01*
X106092365Y-69584849D01*
X106003857Y-69503993D01*
X105791805Y-69361025D01*
X105564906Y-69267818D01*
X105329792Y-69222153D01*
X105093095Y-69221810D01*
X104861447Y-69264571D01*
X104641479Y-69348216D01*
X104439823Y-69470527D01*
X104263112Y-69629283D01*
X104117978Y-69822267D01*
X104011051Y-70047259D01*
X103948965Y-70302041D01*
X103937570Y-70424843D01*
X103953247Y-70690900D01*
X104023847Y-70943322D01*
X104147283Y-71177648D01*
X104321467Y-71389418D01*
X104544312Y-71574170D01*
X104622562Y-71632589D01*
X104681245Y-71685576D01*
X104703679Y-71718822D01*
X104694733Y-71747805D01*
X104665704Y-71825462D01*
X104619027Y-71944917D01*
X104557232Y-72099828D01*
X104482851Y-72283858D01*
X104398413Y-72490666D01*
X104306450Y-72713912D01*
X104222772Y-72916208D01*
X104136367Y-73125152D01*
X104059139Y-73311964D01*
X103993717Y-73470280D01*
X103942732Y-73593735D01*
X103908813Y-73675964D01*
X103894591Y-73710604D01*
X103894426Y-73711014D01*
X103865973Y-73740264D01*
X103811383Y-73739929D01*
X103723610Y-73708446D01*
X103595609Y-73644251D01*
X103585533Y-73638846D01*
X103490482Y-73590216D01*
X103415425Y-73555794D01*
X103375843Y-73542730D01*
X103343401Y-73558168D01*
X103270896Y-73601724D01*
X103166566Y-73668217D01*
X103038540Y-73752464D01*
X102894949Y-73849282D01*
X102753469Y-73944200D01*
X102622612Y-74028956D01*
X102514293Y-74095962D01*
X102436961Y-74139995D01*
X102399063Y-74155834D01*
X102392608Y-74153823D01*
X102347610Y-74122124D01*
X102270728Y-74056647D01*
X102168722Y-73963514D01*
X102048352Y-73848847D01*
X101916380Y-73718766D01*
X101480040Y-73281698D01*
X102159734Y-72281906D01*
X102056403Y-72058352D01*
X102056097Y-72057691D01*
X101994047Y-71915180D01*
X101930641Y-71756484D01*
X101879559Y-71615834D01*
X101871828Y-71593149D01*
X101832853Y-71487836D01*
X101797708Y-71406000D01*
X101773196Y-71363767D01*
X101763213Y-71357803D01*
X101703287Y-71337795D01*
X101601533Y-71311908D01*
X101469069Y-71282836D01*
X101317012Y-71253272D01*
X101271467Y-71244933D01*
X101106686Y-71214573D01*
X100952931Y-71185975D01*
X100825679Y-71162030D01*
X100740403Y-71145626D01*
X100587127Y-71115372D01*
X100587127Y-70477111D01*
X100587161Y-70398631D01*
X100587809Y-70207169D01*
X100589721Y-70064278D01*
X100593470Y-69962655D01*
X100599623Y-69894997D01*
X100608752Y-69854002D01*
X100621428Y-69832366D01*
X100638219Y-69822786D01*
X100654475Y-69818905D01*
X100720749Y-69805176D01*
X100826480Y-69784211D01*
X100960916Y-69758054D01*
X101113303Y-69728749D01*
X101272891Y-69698343D01*
X101428926Y-69668879D01*
X101570658Y-69642403D01*
X101687332Y-69620960D01*
X101768198Y-69606594D01*
X101802504Y-69601351D01*
X101804823Y-69598186D01*
X101823475Y-69557108D01*
X101855754Y-69478510D01*
X101896392Y-69375087D01*
X101952789Y-69235739D01*
X102022215Y-69074692D01*
X102087289Y-68932757D01*
X102102203Y-68900898D01*
X102144048Y-68801135D01*
X102169119Y-68724187D01*
X102172427Y-68684596D01*
X102170721Y-68681791D01*
X102143632Y-68640471D01*
X102089928Y-68560206D01*
X102014878Y-68448816D01*
X101923747Y-68314121D01*
X101821801Y-68163942D01*
X101706931Y-67993317D01*
X101620762Y-67860777D01*
X101562132Y-67763578D01*
X101527651Y-67695700D01*
X101513927Y-67651122D01*
X101517569Y-67623827D01*
X101518795Y-67621779D01*
X101551748Y-67582002D01*
X101618928Y-67509518D01*
X101713420Y-67411512D01*
X101828307Y-67295168D01*
X101956673Y-67167671D01*
X102089832Y-67038287D01*
X102220270Y-66916675D01*
X102316120Y-66834622D01*
X102379867Y-66790026D01*
X102413997Y-66780783D01*
X102418457Y-66782859D01*
X102465422Y-66810851D01*
X102550686Y-66865550D01*
X102666260Y-66941703D01*
X102804155Y-67034058D01*
X102956382Y-67137363D01*
X103452611Y-67476231D01*
X103676708Y-67374522D01*
X103683220Y-67371575D01*
X103820805Y-67311970D01*
X103966768Y-67252688D01*
X104090576Y-67206151D01*
X104091123Y-67205959D01*
X104189415Y-67169963D01*
X104265082Y-67139561D01*
X104301781Y-67121318D01*
X104302375Y-67120656D01*
X104314834Y-67083297D01*
X104335337Y-66998337D01*
X104361908Y-66874935D01*
X104392568Y-66722248D01*
X104425337Y-66549433D01*
X104426479Y-66543240D01*
X104459194Y-66366897D01*
X104489156Y-66207209D01*
X104514426Y-66074371D01*
X104533066Y-65978579D01*
X104543136Y-65930029D01*
X104543780Y-65927339D01*
X104550409Y-65906554D01*
X104563842Y-65890932D01*
X104591447Y-65879736D01*
X104640594Y-65872228D01*
X104718654Y-65867671D01*
X104832995Y-65865329D01*
X104990987Y-65864464D01*
X105200001Y-65864340D01*
X105226263Y-65864340D01*
X105429176Y-65864511D01*
G36*
X105429176Y-65864511D02*
G01*
X105581896Y-65865505D01*
X105691793Y-65868059D01*
X105766236Y-65872911D01*
X105812595Y-65880797D01*
X105838240Y-65892454D01*
X105850540Y-65908619D01*
X105856866Y-65930029D01*
X105857048Y-65930798D01*
X105867442Y-65981129D01*
X105886340Y-66078354D01*
X105911803Y-66212276D01*
X105941891Y-66372701D01*
X105974665Y-66549433D01*
X105977338Y-66563894D01*
X106010011Y-66735425D01*
X106040414Y-66886091D01*
X106066569Y-67006733D01*
X106086497Y-67088195D01*
X106098221Y-67121318D01*
X106098283Y-67121371D01*
X106135230Y-67139695D01*
X106211058Y-67170143D01*
X106309426Y-67206151D01*
X106314966Y-67208106D01*
X106440725Y-67255636D01*
X106587012Y-67315249D01*
X106723294Y-67374522D01*
X106947391Y-67476231D01*
X107443619Y-67137363D01*
X107478571Y-67113529D01*
X107628281Y-67012221D01*
X107761868Y-66923041D01*
X107871344Y-66851239D01*
X107948719Y-66802069D01*
X107986005Y-66780783D01*
X108011553Y-66785662D01*
X108069556Y-66823468D01*
X108159196Y-66898336D01*
X108282958Y-67012369D01*
X108443329Y-67167671D01*
X108457680Y-67181807D01*
X108584934Y-67308465D01*
X108697970Y-67423211D01*
X108789868Y-67518857D01*
X108853708Y-67588212D01*
X108882571Y-67624086D01*
X108882665Y-67624260D01*
X108886332Y-67651572D01*
X108872809Y-67695874D01*
X108838685Y-67763227D01*
X108780549Y-67859692D01*
X108694989Y-67991329D01*
X108578595Y-68164200D01*
X108558760Y-68193378D01*
X108458446Y-68341192D01*
X108369924Y-68472043D01*
X108298466Y-68578109D01*
X108249344Y-68651568D01*
X108227832Y-68684596D01*
X108226209Y-68691592D01*
X108236388Y-68743792D01*
X108266880Y-68829027D01*
X108312713Y-68932757D01*
X108375001Y-69068417D01*
X108444549Y-69229387D01*
X108503610Y-69375087D01*
X108518253Y-69412799D01*
X108556601Y-69509088D01*
X108584771Y-69576170D01*
X108597498Y-69601351D01*
X108611546Y-69603233D01*
X108674682Y-69614117D01*
X108778020Y-69632915D01*
X108910810Y-69657581D01*
X109062298Y-69686070D01*
X109221733Y-69716339D01*
X109378362Y-69746341D01*
X109521434Y-69774032D01*
X109640196Y-69797366D01*
X109723897Y-69814299D01*
X109761783Y-69822786D01*
X109768064Y-69825179D01*
X109783374Y-69838085D01*
X109794764Y-69865562D01*
X109802804Y-69914912D01*
X109808065Y-69993439D01*
X109811117Y-70108446D01*
X109812530Y-70267236D01*
X109812874Y-70477111D01*
X109812874Y-71115372D01*
X109659599Y-71145626D01*
X109641058Y-71149251D01*
X109542597Y-71168035D01*
X109406449Y-71193559D01*
X109248088Y-71222934D01*
X109082989Y-71253272D01*
X109017974Y-71265475D01*
X108872698Y-71295163D01*
X108751627Y-71323236D01*
X108665887Y-71347002D01*
X108626602Y-71363767D01*
X108608800Y-71391160D01*
X108576390Y-71463640D01*
X108543235Y-71557443D01*
X108531565Y-71592569D01*
X108488605Y-71707875D01*
X108433193Y-71844342D01*
X108374354Y-71979420D01*
X108342885Y-72049975D01*
X108298052Y-72155361D01*
X108267241Y-72234284D01*
X108255786Y-72273519D01*
X108256423Y-72276480D01*
X108278151Y-72318105D01*
X108327147Y-72398435D01*
X108398439Y-72509686D01*
X108487055Y-72644071D01*
X108588024Y-72793806D01*
X108920262Y-73281397D01*
X108483772Y-73718615D01*
X108441556Y-73760687D01*
X108312471Y-73886619D01*
X108197108Y-73995220D01*
X108102225Y-74080369D01*
X108034583Y-74135948D01*
X108000939Y-74155834D01*
X107964403Y-74140704D01*
X107887891Y-74097267D01*
X107780197Y-74030736D01*
X107649768Y-73946333D01*
X107505053Y-73849282D01*
X107362911Y-73753430D01*
X107234679Y-73669023D01*
X107130055Y-73602316D01*
X107057172Y-73558490D01*
X107024159Y-73542730D01*
X107022224Y-73542874D01*
X106978370Y-73558411D01*
X106900599Y-73594587D01*
X106804393Y-73644251D01*
X106803382Y-73644795D01*
X106675606Y-73708792D01*
X106588052Y-73740057D01*
X106533727Y-73740143D01*
X106505642Y-73710604D01*
X106493753Y-73681527D01*
X106461669Y-73603654D01*
X106412248Y-73483941D01*
X106348119Y-73328752D01*
X106271912Y-73144450D01*
X106186256Y-72937399D01*
X106093782Y-72713962D01*
X106009963Y-72510692D01*
X105924679Y-72302115D01*
X105849223Y-72115729D01*
X105786127Y-71957873D01*
X105737924Y-71834885D01*
X105707145Y-71753105D01*
X105696323Y-71718872D01*
X105716992Y-71687481D01*
X105774410Y-71635068D01*
X105855689Y-71574170D01*
X106050821Y-71414853D01*
X106225446Y-71211273D01*
X106353236Y-70987274D01*
X106433403Y-70749469D01*
X106465161Y-70504473D01*
X106447723Y-70258899D01*
X106380302Y-70019361D01*
X106262112Y-69792473D01*
X106092365Y-69584849D01*
X106003857Y-69503993D01*
X105791805Y-69361025D01*
X105564906Y-69267818D01*
X105329792Y-69222153D01*
X105093095Y-69221810D01*
X104861447Y-69264571D01*
X104641479Y-69348216D01*
X104439823Y-69470527D01*
X104263112Y-69629283D01*
X104117978Y-69822267D01*
X104011051Y-70047259D01*
X103948965Y-70302041D01*
X103937570Y-70424843D01*
X103953247Y-70690900D01*
X104023847Y-70943322D01*
X104147283Y-71177648D01*
X104321467Y-71389418D01*
X104544312Y-71574170D01*
X104622562Y-71632589D01*
X104681245Y-71685576D01*
X104703679Y-71718822D01*
X104694733Y-71747805D01*
X104665704Y-71825462D01*
X104619027Y-71944917D01*
X104557232Y-72099828D01*
X104482851Y-72283858D01*
X104398413Y-72490666D01*
X104306450Y-72713912D01*
X104222772Y-72916208D01*
X104136367Y-73125152D01*
X104059139Y-73311964D01*
X103993717Y-73470280D01*
X103942732Y-73593735D01*
X103908813Y-73675964D01*
X103894591Y-73710604D01*
X103894426Y-73711014D01*
X103865973Y-73740264D01*
X103811383Y-73739929D01*
X103723610Y-73708446D01*
X103595609Y-73644251D01*
X103585533Y-73638846D01*
X103490482Y-73590216D01*
X103415425Y-73555794D01*
X103375843Y-73542730D01*
X103343401Y-73558168D01*
X103270896Y-73601724D01*
X103166566Y-73668217D01*
X103038540Y-73752464D01*
X102894949Y-73849282D01*
X102753469Y-73944200D01*
X102622612Y-74028956D01*
X102514293Y-74095962D01*
X102436961Y-74139995D01*
X102399063Y-74155834D01*
X102392608Y-74153823D01*
X102347610Y-74122124D01*
X102270728Y-74056647D01*
X102168722Y-73963514D01*
X102048352Y-73848847D01*
X101916380Y-73718766D01*
X101480040Y-73281698D01*
X102159734Y-72281906D01*
X102056403Y-72058352D01*
X102056097Y-72057691D01*
X101994047Y-71915180D01*
X101930641Y-71756484D01*
X101879559Y-71615834D01*
X101871828Y-71593149D01*
X101832853Y-71487836D01*
X101797708Y-71406000D01*
X101773196Y-71363767D01*
X101763213Y-71357803D01*
X101703287Y-71337795D01*
X101601533Y-71311908D01*
X101469069Y-71282836D01*
X101317012Y-71253272D01*
X101271467Y-71244933D01*
X101106686Y-71214573D01*
X100952931Y-71185975D01*
X100825679Y-71162030D01*
X100740403Y-71145626D01*
X100587127Y-71115372D01*
X100587127Y-70477111D01*
X100587161Y-70398631D01*
X100587809Y-70207169D01*
X100589721Y-70064278D01*
X100593470Y-69962655D01*
X100599623Y-69894997D01*
X100608752Y-69854002D01*
X100621428Y-69832366D01*
X100638219Y-69822786D01*
X100654475Y-69818905D01*
X100720749Y-69805176D01*
X100826480Y-69784211D01*
X100960916Y-69758054D01*
X101113303Y-69728749D01*
X101272891Y-69698343D01*
X101428926Y-69668879D01*
X101570658Y-69642403D01*
X101687332Y-69620960D01*
X101768198Y-69606594D01*
X101802504Y-69601351D01*
X101804823Y-69598186D01*
X101823475Y-69557108D01*
X101855754Y-69478510D01*
X101896392Y-69375087D01*
X101952789Y-69235739D01*
X102022215Y-69074692D01*
X102087289Y-68932757D01*
X102102203Y-68900898D01*
X102144048Y-68801135D01*
X102169119Y-68724187D01*
X102172427Y-68684596D01*
X102170721Y-68681791D01*
X102143632Y-68640471D01*
X102089928Y-68560206D01*
X102014878Y-68448816D01*
X101923747Y-68314121D01*
X101821801Y-68163942D01*
X101706931Y-67993317D01*
X101620762Y-67860777D01*
X101562132Y-67763578D01*
X101527651Y-67695700D01*
X101513927Y-67651122D01*
X101517569Y-67623827D01*
X101518795Y-67621779D01*
X101551748Y-67582002D01*
X101618928Y-67509518D01*
X101713420Y-67411512D01*
X101828307Y-67295168D01*
X101956673Y-67167671D01*
X102089832Y-67038287D01*
X102220270Y-66916675D01*
X102316120Y-66834622D01*
X102379867Y-66790026D01*
X102413997Y-66780783D01*
X102418457Y-66782859D01*
X102465422Y-66810851D01*
X102550686Y-66865550D01*
X102666260Y-66941703D01*
X102804155Y-67034058D01*
X102956382Y-67137363D01*
X103452611Y-67476231D01*
X103676708Y-67374522D01*
X103683220Y-67371575D01*
X103820805Y-67311970D01*
X103966768Y-67252688D01*
X104090576Y-67206151D01*
X104091123Y-67205959D01*
X104189415Y-67169963D01*
X104265082Y-67139561D01*
X104301781Y-67121318D01*
X104302375Y-67120656D01*
X104314834Y-67083297D01*
X104335337Y-66998337D01*
X104361908Y-66874935D01*
X104392568Y-66722248D01*
X104425337Y-66549433D01*
X104426479Y-66543240D01*
X104459194Y-66366897D01*
X104489156Y-66207209D01*
X104514426Y-66074371D01*
X104533066Y-65978579D01*
X104543136Y-65930029D01*
X104543780Y-65927339D01*
X104550409Y-65906554D01*
X104563842Y-65890932D01*
X104591447Y-65879736D01*
X104640594Y-65872228D01*
X104718654Y-65867671D01*
X104832995Y-65865329D01*
X104990987Y-65864464D01*
X105200001Y-65864340D01*
X105226263Y-65864340D01*
X105429176Y-65864511D01*
G37*
%TD*%
M02*
