%TF.GenerationSoftware,KiCad,Pcbnew,10.0.0*%
%TF.CreationDate,2026-05-08T13:02:35+09:00*%
%TF.ProjectId,stm32_wildfire_lcd_adapter,73746d33-325f-4776-996c-64666972655f,rev?*%
%TF.SameCoordinates,Original*%
%TF.FileFunction,Paste,Top*%
%TF.FilePolarity,Positive*%
%FSLAX46Y46*%
G04 Gerber Fmt 4.6, Leading zero omitted, Abs format (unit mm)*
G04 Created by KiCad (PCBNEW 10.0.0) date 2026-05-08 13:02:35*
%MOMM*%
%LPD*%
G01*
G04 APERTURE LIST*
%ADD10R,0.300000X1.300000*%
%ADD11R,1.800000X2.200000*%
G04 APERTURE END LIST*
D10*
%TO.C,J1*%
X114950000Y-65675000D03*
X114450000Y-65675000D03*
X113950000Y-65675000D03*
X113450000Y-65675000D03*
X112950000Y-65675000D03*
X112450000Y-65675000D03*
X111950000Y-65675000D03*
X111450000Y-65675000D03*
X110950000Y-65675000D03*
X110450000Y-65675000D03*
X109950000Y-65675000D03*
X109450000Y-65675000D03*
X108950000Y-65675000D03*
X108450000Y-65675000D03*
X107950000Y-65675000D03*
X107450000Y-65675000D03*
X106950000Y-65675000D03*
X106450000Y-65675000D03*
X105950000Y-65675000D03*
X105450000Y-65675000D03*
X104950000Y-65675000D03*
X104450000Y-65675000D03*
X103950000Y-65675000D03*
X103450000Y-65675000D03*
X102950000Y-65675000D03*
X102450000Y-65675000D03*
X101950000Y-65675000D03*
X101450000Y-65675000D03*
X100950000Y-65675000D03*
X100450000Y-65675000D03*
X99950000Y-65675000D03*
X99450000Y-65675000D03*
X98950000Y-65675000D03*
X98450000Y-65675000D03*
X97950000Y-65675000D03*
X97450000Y-65675000D03*
X96950000Y-65675000D03*
X96450000Y-65675000D03*
X95950000Y-65675000D03*
X95450000Y-65675000D03*
D11*
X116850000Y-62425000D03*
X93550000Y-62425000D03*
%TD*%
D10*
%TO.C,J2*%
X95450000Y-77175000D03*
X95950000Y-77175000D03*
X96450000Y-77175000D03*
X96950000Y-77175000D03*
X97450000Y-77175000D03*
X97950000Y-77175000D03*
X98450000Y-77175000D03*
X98950000Y-77175000D03*
X99450000Y-77175000D03*
X99950000Y-77175000D03*
X100450000Y-77175000D03*
X100950000Y-77175000D03*
X101450000Y-77175000D03*
X101950000Y-77175000D03*
X102450000Y-77175000D03*
X102950000Y-77175000D03*
X103450000Y-77175000D03*
X103950000Y-77175000D03*
X104450000Y-77175000D03*
X104950000Y-77175000D03*
X105450000Y-77175000D03*
X105950000Y-77175000D03*
X106450000Y-77175000D03*
X106950000Y-77175000D03*
X107450000Y-77175000D03*
X107950000Y-77175000D03*
X108450000Y-77175000D03*
X108950000Y-77175000D03*
X109450000Y-77175000D03*
X109950000Y-77175000D03*
X110450000Y-77175000D03*
X110950000Y-77175000D03*
X111450000Y-77175000D03*
X111950000Y-77175000D03*
X112450000Y-77175000D03*
X112950000Y-77175000D03*
X113450000Y-77175000D03*
X113950000Y-77175000D03*
X114450000Y-77175000D03*
X114950000Y-77175000D03*
D11*
X93550000Y-80425000D03*
X116850000Y-80425000D03*
%TD*%
M02*
