M48
; DRILL file KiCad 10.0.0 date 2026-05-08T13:02:39
; FORMAT={-:-/ absolute / metric / decimal}
; #@! TF.CreationDate,2026-05-08T13:02:39+09:00
; #@! TF.GenerationSoftware,Kicad,Pcbnew,10.0.0
; #@! TF.FileFunction,Plated,1,2,PTH
FMAT,2
METRIC
; #@! TA.AperFunction,Plated,PTH,ViaDrill
T1C0.300
%
G90
G05
T1
X94.85Y-69.075
X95.654Y-69.101
X96.45Y-69.025
X97.2Y-67.675
X97.45Y-73.95
X98.95Y-78.875
X99.325Y-62.625
X100.95Y-78.875
X101.375Y-63.275
X102.25Y-63.775
X102.95Y-78.875
X104.95Y-78.875
X106.4Y-63.95
X106.95Y-78.875
X107.5Y-63.175
X108.95Y-78.875
X109.175Y-62.45
X110.175Y-63.25
X110.275Y-81.275
X110.95Y-78.875
X111.2Y-64.25
X112.15Y-80.65
X113.6Y-80.875
X113.675Y-73.525
M30
