%TF.GenerationSoftware,KiCad,Pcbnew,10.0.0*%
%TF.CreationDate,2026-05-08T13:02:35+09:00*%
%TF.ProjectId,stm32_wildfire_lcd_adapter,73746d33-325f-4776-996c-64666972655f,rev?*%
%TF.SameCoordinates,Original*%
%TF.FileFunction,Legend,Top*%
%TF.FilePolarity,Positive*%
%FSLAX46Y46*%
G04 Gerber Fmt 4.6, Leading zero omitted, Abs format (unit mm)*
G04 Created by KiCad (PCBNEW 10.0.0) date 2026-05-08 13:02:35*
%MOMM*%
%LPD*%
G01*
G04 APERTURE LIST*
%ADD10C,0.160000*%
%ADD11C,0.150000*%
%ADD12C,0.200000*%
%ADD13C,0.400000*%
%ADD14C,0.120000*%
G04 APERTURE END LIST*
D10*
X96148120Y-72255820D02*
X95929072Y-71874867D01*
X95690977Y-72255820D02*
X95790977Y-71455820D01*
X95790977Y-71455820D02*
X96095739Y-71455820D01*
X96095739Y-71455820D02*
X96167167Y-71493915D01*
X96167167Y-71493915D02*
X96200501Y-71532010D01*
X96200501Y-71532010D02*
X96229072Y-71608201D01*
X96229072Y-71608201D02*
X96214786Y-71722486D01*
X96214786Y-71722486D02*
X96167167Y-71798677D01*
X96167167Y-71798677D02*
X96124310Y-71836772D01*
X96124310Y-71836772D02*
X96043358Y-71874867D01*
X96043358Y-71874867D02*
X95738596Y-71874867D01*
X96800501Y-72217725D02*
X96719548Y-72255820D01*
X96719548Y-72255820D02*
X96567167Y-72255820D01*
X96567167Y-72255820D02*
X96495739Y-72217725D01*
X96495739Y-72217725D02*
X96467167Y-72141534D01*
X96467167Y-72141534D02*
X96505263Y-71836772D01*
X96505263Y-71836772D02*
X96552882Y-71760582D01*
X96552882Y-71760582D02*
X96633834Y-71722486D01*
X96633834Y-71722486D02*
X96786215Y-71722486D01*
X96786215Y-71722486D02*
X96857643Y-71760582D01*
X96857643Y-71760582D02*
X96886215Y-71836772D01*
X96886215Y-71836772D02*
X96876691Y-71912963D01*
X96876691Y-71912963D02*
X96486215Y-71989153D01*
X97167167Y-71722486D02*
X97290977Y-72255820D01*
X97290977Y-72255820D02*
X97548119Y-71722486D01*
X97795739Y-72179629D02*
X97829072Y-72217725D01*
X97829072Y-72217725D02*
X97786215Y-72255820D01*
X97786215Y-72255820D02*
X97752881Y-72217725D01*
X97752881Y-72217725D02*
X97795739Y-72179629D01*
X97795739Y-72179629D02*
X97786215Y-72255820D01*
X98776691Y-72255820D02*
X98876691Y-71455820D01*
X98876691Y-71455820D02*
X99071929Y-72027248D01*
X99071929Y-72027248D02*
X99410024Y-71455820D01*
X99410024Y-71455820D02*
X99310024Y-72255820D01*
X100033834Y-72255820D02*
X100086215Y-71836772D01*
X100086215Y-71836772D02*
X100057643Y-71760582D01*
X100057643Y-71760582D02*
X99986215Y-71722486D01*
X99986215Y-71722486D02*
X99833834Y-71722486D01*
X99833834Y-71722486D02*
X99752882Y-71760582D01*
X100038596Y-72217725D02*
X99957643Y-72255820D01*
X99957643Y-72255820D02*
X99767167Y-72255820D01*
X99767167Y-72255820D02*
X99695739Y-72217725D01*
X99695739Y-72217725D02*
X99667167Y-72141534D01*
X99667167Y-72141534D02*
X99676691Y-72065344D01*
X99676691Y-72065344D02*
X99724310Y-71989153D01*
X99724310Y-71989153D02*
X99805263Y-71951058D01*
X99805263Y-71951058D02*
X99995739Y-71951058D01*
X99995739Y-71951058D02*
X100076691Y-71912963D01*
X100481453Y-71722486D02*
X100414787Y-72255820D01*
X100471930Y-71798677D02*
X100514787Y-71760582D01*
X100514787Y-71760582D02*
X100595739Y-71722486D01*
X100595739Y-71722486D02*
X100710025Y-71722486D01*
X100710025Y-71722486D02*
X100781453Y-71760582D01*
X100781453Y-71760582D02*
X100810025Y-71836772D01*
X100810025Y-71836772D02*
X100757644Y-72255820D01*
X101105263Y-72217725D02*
X101176692Y-72255820D01*
X101176692Y-72255820D02*
X101329073Y-72255820D01*
X101329073Y-72255820D02*
X101410025Y-72217725D01*
X101410025Y-72217725D02*
X101457644Y-72141534D01*
X101457644Y-72141534D02*
X101462406Y-72103439D01*
X101462406Y-72103439D02*
X101433835Y-72027248D01*
X101433835Y-72027248D02*
X101362406Y-71989153D01*
X101362406Y-71989153D02*
X101248121Y-71989153D01*
X101248121Y-71989153D02*
X101176692Y-71951058D01*
X101176692Y-71951058D02*
X101148121Y-71874867D01*
X101148121Y-71874867D02*
X101152883Y-71836772D01*
X101152883Y-71836772D02*
X101200502Y-71760582D01*
X101200502Y-71760582D02*
X101281454Y-71722486D01*
X101281454Y-71722486D02*
X101395740Y-71722486D01*
X101395740Y-71722486D02*
X101467168Y-71760582D01*
X101900502Y-72255820D02*
X101829073Y-72217725D01*
X101829073Y-72217725D02*
X101795740Y-72179629D01*
X101795740Y-72179629D02*
X101767168Y-72103439D01*
X101767168Y-72103439D02*
X101795740Y-71874867D01*
X101795740Y-71874867D02*
X101843359Y-71798677D01*
X101843359Y-71798677D02*
X101886216Y-71760582D01*
X101886216Y-71760582D02*
X101967168Y-71722486D01*
X101967168Y-71722486D02*
X102081454Y-71722486D01*
X102081454Y-71722486D02*
X102152882Y-71760582D01*
X102152882Y-71760582D02*
X102186216Y-71798677D01*
X102186216Y-71798677D02*
X102214787Y-71874867D01*
X102214787Y-71874867D02*
X102186216Y-72103439D01*
X102186216Y-72103439D02*
X102138597Y-72179629D01*
X102138597Y-72179629D02*
X102095740Y-72217725D01*
X102095740Y-72217725D02*
X102014787Y-72255820D01*
X102014787Y-72255820D02*
X101900502Y-72255820D01*
X102919550Y-71722486D02*
X102852883Y-72255820D01*
X102576692Y-71722486D02*
X102524312Y-72141534D01*
X102524312Y-72141534D02*
X102552883Y-72217725D01*
X102552883Y-72217725D02*
X102624312Y-72255820D01*
X102624312Y-72255820D02*
X102738597Y-72255820D01*
X102738597Y-72255820D02*
X102819550Y-72217725D01*
X102819550Y-72217725D02*
X102862407Y-72179629D01*
X103233836Y-72255820D02*
X103300502Y-71722486D01*
X103281455Y-71874867D02*
X103329074Y-71798677D01*
X103329074Y-71798677D02*
X103371931Y-71760582D01*
X103371931Y-71760582D02*
X103452883Y-71722486D01*
X103452883Y-71722486D02*
X103529074Y-71722486D01*
X95690977Y-73543775D02*
X95790977Y-72743775D01*
X95790977Y-72743775D02*
X95986215Y-73315203D01*
X95986215Y-73315203D02*
X96324310Y-72743775D01*
X96324310Y-72743775D02*
X96224310Y-73543775D01*
X96948120Y-73543775D02*
X97000501Y-73124727D01*
X97000501Y-73124727D02*
X96971929Y-73048537D01*
X96971929Y-73048537D02*
X96900501Y-73010441D01*
X96900501Y-73010441D02*
X96748120Y-73010441D01*
X96748120Y-73010441D02*
X96667168Y-73048537D01*
X96952882Y-73505680D02*
X96871929Y-73543775D01*
X96871929Y-73543775D02*
X96681453Y-73543775D01*
X96681453Y-73543775D02*
X96610025Y-73505680D01*
X96610025Y-73505680D02*
X96581453Y-73429489D01*
X96581453Y-73429489D02*
X96590977Y-73353299D01*
X96590977Y-73353299D02*
X96638596Y-73277108D01*
X96638596Y-73277108D02*
X96719549Y-73239013D01*
X96719549Y-73239013D02*
X96910025Y-73239013D01*
X96910025Y-73239013D02*
X96990977Y-73200918D01*
X97319549Y-73010441D02*
X97443359Y-73543775D01*
X97700501Y-73010441D02*
X97443359Y-73543775D01*
X97443359Y-73543775D02*
X97343359Y-73734251D01*
X97343359Y-73734251D02*
X97300501Y-73772346D01*
X97300501Y-73772346D02*
X97219549Y-73810441D01*
X98614787Y-72705680D02*
X97800502Y-73734251D01*
X98829073Y-72819965D02*
X98871930Y-72781870D01*
X98871930Y-72781870D02*
X98952882Y-72743775D01*
X98952882Y-72743775D02*
X99143358Y-72743775D01*
X99143358Y-72743775D02*
X99214787Y-72781870D01*
X99214787Y-72781870D02*
X99248120Y-72819965D01*
X99248120Y-72819965D02*
X99276692Y-72896156D01*
X99276692Y-72896156D02*
X99267168Y-72972346D01*
X99267168Y-72972346D02*
X99214787Y-73086632D01*
X99214787Y-73086632D02*
X98700501Y-73543775D01*
X98700501Y-73543775D02*
X99195739Y-73543775D01*
X99790978Y-72743775D02*
X99867168Y-72743775D01*
X99867168Y-72743775D02*
X99938597Y-72781870D01*
X99938597Y-72781870D02*
X99971930Y-72819965D01*
X99971930Y-72819965D02*
X100000502Y-72896156D01*
X100000502Y-72896156D02*
X100019549Y-73048537D01*
X100019549Y-73048537D02*
X99995740Y-73239013D01*
X99995740Y-73239013D02*
X99938597Y-73391394D01*
X99938597Y-73391394D02*
X99890978Y-73467584D01*
X99890978Y-73467584D02*
X99848121Y-73505680D01*
X99848121Y-73505680D02*
X99767168Y-73543775D01*
X99767168Y-73543775D02*
X99690978Y-73543775D01*
X99690978Y-73543775D02*
X99619549Y-73505680D01*
X99619549Y-73505680D02*
X99586216Y-73467584D01*
X99586216Y-73467584D02*
X99557644Y-73391394D01*
X99557644Y-73391394D02*
X99538597Y-73239013D01*
X99538597Y-73239013D02*
X99562406Y-73048537D01*
X99562406Y-73048537D02*
X99619549Y-72896156D01*
X99619549Y-72896156D02*
X99667168Y-72819965D01*
X99667168Y-72819965D02*
X99710025Y-72781870D01*
X99710025Y-72781870D02*
X99790978Y-72743775D01*
X100352883Y-72819965D02*
X100395740Y-72781870D01*
X100395740Y-72781870D02*
X100476692Y-72743775D01*
X100476692Y-72743775D02*
X100667168Y-72743775D01*
X100667168Y-72743775D02*
X100738597Y-72781870D01*
X100738597Y-72781870D02*
X100771930Y-72819965D01*
X100771930Y-72819965D02*
X100800502Y-72896156D01*
X100800502Y-72896156D02*
X100790978Y-72972346D01*
X100790978Y-72972346D02*
X100738597Y-73086632D01*
X100738597Y-73086632D02*
X100224311Y-73543775D01*
X100224311Y-73543775D02*
X100719549Y-73543775D01*
X101505264Y-72743775D02*
X101352883Y-72743775D01*
X101352883Y-72743775D02*
X101271931Y-72781870D01*
X101271931Y-72781870D02*
X101229073Y-72819965D01*
X101229073Y-72819965D02*
X101138597Y-72934251D01*
X101138597Y-72934251D02*
X101081454Y-73086632D01*
X101081454Y-73086632D02*
X101043359Y-73391394D01*
X101043359Y-73391394D02*
X101071931Y-73467584D01*
X101071931Y-73467584D02*
X101105264Y-73505680D01*
X101105264Y-73505680D02*
X101176693Y-73543775D01*
X101176693Y-73543775D02*
X101329073Y-73543775D01*
X101329073Y-73543775D02*
X101410026Y-73505680D01*
X101410026Y-73505680D02*
X101452883Y-73467584D01*
X101452883Y-73467584D02*
X101500502Y-73391394D01*
X101500502Y-73391394D02*
X101524312Y-73200918D01*
X101524312Y-73200918D02*
X101495740Y-73124727D01*
X101495740Y-73124727D02*
X101462407Y-73086632D01*
X101462407Y-73086632D02*
X101390978Y-73048537D01*
X101390978Y-73048537D02*
X101238597Y-73048537D01*
X101238597Y-73048537D02*
X101157645Y-73086632D01*
X101157645Y-73086632D02*
X101114788Y-73124727D01*
X101114788Y-73124727D02*
X101067169Y-73200918D01*
D11*
X93910714Y-75754819D02*
X93339286Y-75754819D01*
X93625000Y-75754819D02*
X93625000Y-74754819D01*
X93625000Y-74754819D02*
X93529762Y-74897676D01*
X93529762Y-74897676D02*
X93434524Y-74992914D01*
X93434524Y-74992914D02*
X93339286Y-75040533D01*
X93714285Y-67413152D02*
X93714285Y-68079819D01*
X93476190Y-67032200D02*
X93238095Y-67746485D01*
X93238095Y-67746485D02*
X93857142Y-67746485D01*
X94428571Y-67079819D02*
X94523809Y-67079819D01*
X94523809Y-67079819D02*
X94619047Y-67127438D01*
X94619047Y-67127438D02*
X94666666Y-67175057D01*
X94666666Y-67175057D02*
X94714285Y-67270295D01*
X94714285Y-67270295D02*
X94761904Y-67460771D01*
X94761904Y-67460771D02*
X94761904Y-67698866D01*
X94761904Y-67698866D02*
X94714285Y-67889342D01*
X94714285Y-67889342D02*
X94666666Y-67984580D01*
X94666666Y-67984580D02*
X94619047Y-68032200D01*
X94619047Y-68032200D02*
X94523809Y-68079819D01*
X94523809Y-68079819D02*
X94428571Y-68079819D01*
X94428571Y-68079819D02*
X94333333Y-68032200D01*
X94333333Y-68032200D02*
X94285714Y-67984580D01*
X94285714Y-67984580D02*
X94238095Y-67889342D01*
X94238095Y-67889342D02*
X94190476Y-67698866D01*
X94190476Y-67698866D02*
X94190476Y-67460771D01*
X94190476Y-67460771D02*
X94238095Y-67270295D01*
X94238095Y-67270295D02*
X94285714Y-67175057D01*
X94285714Y-67175057D02*
X94333333Y-67127438D01*
X94333333Y-67127438D02*
X94428571Y-67079819D01*
X115739285Y-75088152D02*
X115739285Y-75754819D01*
X115501190Y-74707200D02*
X115263095Y-75421485D01*
X115263095Y-75421485D02*
X115882142Y-75421485D01*
X116453571Y-74754819D02*
X116548809Y-74754819D01*
X116548809Y-74754819D02*
X116644047Y-74802438D01*
X116644047Y-74802438D02*
X116691666Y-74850057D01*
X116691666Y-74850057D02*
X116739285Y-74945295D01*
X116739285Y-74945295D02*
X116786904Y-75135771D01*
X116786904Y-75135771D02*
X116786904Y-75373866D01*
X116786904Y-75373866D02*
X116739285Y-75564342D01*
X116739285Y-75564342D02*
X116691666Y-75659580D01*
X116691666Y-75659580D02*
X116644047Y-75707200D01*
X116644047Y-75707200D02*
X116548809Y-75754819D01*
X116548809Y-75754819D02*
X116453571Y-75754819D01*
X116453571Y-75754819D02*
X116358333Y-75707200D01*
X116358333Y-75707200D02*
X116310714Y-75659580D01*
X116310714Y-75659580D02*
X116263095Y-75564342D01*
X116263095Y-75564342D02*
X116215476Y-75373866D01*
X116215476Y-75373866D02*
X116215476Y-75135771D01*
X116215476Y-75135771D02*
X116263095Y-74945295D01*
X116263095Y-74945295D02*
X116310714Y-74850057D01*
X116310714Y-74850057D02*
X116358333Y-74802438D01*
X116358333Y-74802438D02*
X116453571Y-74754819D01*
X116685714Y-68079819D02*
X116114286Y-68079819D01*
X116400000Y-68079819D02*
X116400000Y-67079819D01*
X116400000Y-67079819D02*
X116304762Y-67222676D01*
X116304762Y-67222676D02*
X116209524Y-67317914D01*
X116209524Y-67317914D02*
X116114286Y-67365533D01*
D12*
X95631577Y-74342219D02*
X96203006Y-74342219D01*
X95792292Y-75342219D02*
X95917292Y-74342219D01*
X96554197Y-75342219D02*
X96464911Y-75294600D01*
X96464911Y-75294600D02*
X96423244Y-75246980D01*
X96423244Y-75246980D02*
X96387530Y-75151742D01*
X96387530Y-75151742D02*
X96423244Y-74866028D01*
X96423244Y-74866028D02*
X96482768Y-74770790D01*
X96482768Y-74770790D02*
X96536339Y-74723171D01*
X96536339Y-74723171D02*
X96637530Y-74675552D01*
X96637530Y-74675552D02*
X96780387Y-74675552D01*
X96780387Y-74675552D02*
X96869673Y-74723171D01*
X96869673Y-74723171D02*
X96911339Y-74770790D01*
X96911339Y-74770790D02*
X96947054Y-74866028D01*
X96947054Y-74866028D02*
X96911339Y-75151742D01*
X96911339Y-75151742D02*
X96851816Y-75246980D01*
X96851816Y-75246980D02*
X96798244Y-75294600D01*
X96798244Y-75294600D02*
X96697054Y-75342219D01*
X96697054Y-75342219D02*
X96554197Y-75342219D01*
X98661340Y-75246980D02*
X98607768Y-75294600D01*
X98607768Y-75294600D02*
X98458959Y-75342219D01*
X98458959Y-75342219D02*
X98363721Y-75342219D01*
X98363721Y-75342219D02*
X98226816Y-75294600D01*
X98226816Y-75294600D02*
X98143483Y-75199361D01*
X98143483Y-75199361D02*
X98107768Y-75104123D01*
X98107768Y-75104123D02*
X98083959Y-74913647D01*
X98083959Y-74913647D02*
X98101816Y-74770790D01*
X98101816Y-74770790D02*
X98173244Y-74580314D01*
X98173244Y-74580314D02*
X98232768Y-74485076D01*
X98232768Y-74485076D02*
X98339911Y-74389838D01*
X98339911Y-74389838D02*
X98488721Y-74342219D01*
X98488721Y-74342219D02*
X98583959Y-74342219D01*
X98583959Y-74342219D02*
X98720864Y-74389838D01*
X98720864Y-74389838D02*
X98762530Y-74437457D01*
X99078006Y-75342219D02*
X99203006Y-74342219D01*
X99506578Y-75342219D02*
X99572054Y-74818409D01*
X99572054Y-74818409D02*
X99536340Y-74723171D01*
X99536340Y-74723171D02*
X99447054Y-74675552D01*
X99447054Y-74675552D02*
X99304197Y-74675552D01*
X99304197Y-74675552D02*
X99203006Y-74723171D01*
X99203006Y-74723171D02*
X99149435Y-74770790D01*
X99982768Y-75342219D02*
X100066102Y-74675552D01*
X100107768Y-74342219D02*
X100054197Y-74389838D01*
X100054197Y-74389838D02*
X100095864Y-74437457D01*
X100095864Y-74437457D02*
X100149435Y-74389838D01*
X100149435Y-74389838D02*
X100107768Y-74342219D01*
X100107768Y-74342219D02*
X100095864Y-74437457D01*
X100542292Y-74675552D02*
X100458958Y-75342219D01*
X100530387Y-74770790D02*
X100583958Y-74723171D01*
X100583958Y-74723171D02*
X100685149Y-74675552D01*
X100685149Y-74675552D02*
X100828006Y-74675552D01*
X100828006Y-74675552D02*
X100917292Y-74723171D01*
X100917292Y-74723171D02*
X100953006Y-74818409D01*
X100953006Y-74818409D02*
X100887530Y-75342219D01*
X101750625Y-75294600D02*
X101649435Y-75342219D01*
X101649435Y-75342219D02*
X101458958Y-75342219D01*
X101458958Y-75342219D02*
X101369673Y-75294600D01*
X101369673Y-75294600D02*
X101333958Y-75199361D01*
X101333958Y-75199361D02*
X101381578Y-74818409D01*
X101381578Y-74818409D02*
X101441101Y-74723171D01*
X101441101Y-74723171D02*
X101542292Y-74675552D01*
X101542292Y-74675552D02*
X101732768Y-74675552D01*
X101732768Y-74675552D02*
X101822054Y-74723171D01*
X101822054Y-74723171D02*
X101857768Y-74818409D01*
X101857768Y-74818409D02*
X101845863Y-74913647D01*
X101845863Y-74913647D02*
X101357768Y-75008885D01*
X102179197Y-75294600D02*
X102268482Y-75342219D01*
X102268482Y-75342219D02*
X102458959Y-75342219D01*
X102458959Y-75342219D02*
X102560149Y-75294600D01*
X102560149Y-75294600D02*
X102619673Y-75199361D01*
X102619673Y-75199361D02*
X102625625Y-75151742D01*
X102625625Y-75151742D02*
X102589911Y-75056504D01*
X102589911Y-75056504D02*
X102500625Y-75008885D01*
X102500625Y-75008885D02*
X102357768Y-75008885D01*
X102357768Y-75008885D02*
X102268482Y-74961266D01*
X102268482Y-74961266D02*
X102232768Y-74866028D01*
X102232768Y-74866028D02*
X102238721Y-74818409D01*
X102238721Y-74818409D02*
X102298244Y-74723171D01*
X102298244Y-74723171D02*
X102399435Y-74675552D01*
X102399435Y-74675552D02*
X102542292Y-74675552D01*
X102542292Y-74675552D02*
X102631578Y-74723171D01*
X103417292Y-75294600D02*
X103316102Y-75342219D01*
X103316102Y-75342219D02*
X103125625Y-75342219D01*
X103125625Y-75342219D02*
X103036340Y-75294600D01*
X103036340Y-75294600D02*
X103000625Y-75199361D01*
X103000625Y-75199361D02*
X103048245Y-74818409D01*
X103048245Y-74818409D02*
X103107768Y-74723171D01*
X103107768Y-74723171D02*
X103208959Y-74675552D01*
X103208959Y-74675552D02*
X103399435Y-74675552D01*
X103399435Y-74675552D02*
X103488721Y-74723171D01*
X103488721Y-74723171D02*
X103524435Y-74818409D01*
X103524435Y-74818409D02*
X103512530Y-74913647D01*
X103512530Y-74913647D02*
X103024435Y-75008885D01*
X104607769Y-75294600D02*
X104744673Y-75342219D01*
X104744673Y-75342219D02*
X104982769Y-75342219D01*
X104982769Y-75342219D02*
X105083959Y-75294600D01*
X105083959Y-75294600D02*
X105137531Y-75246980D01*
X105137531Y-75246980D02*
X105197054Y-75151742D01*
X105197054Y-75151742D02*
X105208959Y-75056504D01*
X105208959Y-75056504D02*
X105173245Y-74961266D01*
X105173245Y-74961266D02*
X105131578Y-74913647D01*
X105131578Y-74913647D02*
X105042293Y-74866028D01*
X105042293Y-74866028D02*
X104857769Y-74818409D01*
X104857769Y-74818409D02*
X104768483Y-74770790D01*
X104768483Y-74770790D02*
X104726816Y-74723171D01*
X104726816Y-74723171D02*
X104691102Y-74627933D01*
X104691102Y-74627933D02*
X104703007Y-74532695D01*
X104703007Y-74532695D02*
X104762531Y-74437457D01*
X104762531Y-74437457D02*
X104816102Y-74389838D01*
X104816102Y-74389838D02*
X104917293Y-74342219D01*
X104917293Y-74342219D02*
X105155388Y-74342219D01*
X105155388Y-74342219D02*
X105292293Y-74389838D01*
X105583959Y-74342219D02*
X106155388Y-74342219D01*
X105744674Y-75342219D02*
X105869674Y-74342219D01*
X106363721Y-75342219D02*
X106488721Y-74342219D01*
X106488721Y-74342219D02*
X106732769Y-75056504D01*
X106732769Y-75056504D02*
X107155388Y-74342219D01*
X107155388Y-74342219D02*
X107030388Y-75342219D01*
X107536340Y-74342219D02*
X108155388Y-74342219D01*
X108155388Y-74342219D02*
X107774436Y-74723171D01*
X107774436Y-74723171D02*
X107917293Y-74723171D01*
X107917293Y-74723171D02*
X108006578Y-74770790D01*
X108006578Y-74770790D02*
X108048245Y-74818409D01*
X108048245Y-74818409D02*
X108083959Y-74913647D01*
X108083959Y-74913647D02*
X108054197Y-75151742D01*
X108054197Y-75151742D02*
X107994674Y-75246980D01*
X107994674Y-75246980D02*
X107941102Y-75294600D01*
X107941102Y-75294600D02*
X107839912Y-75342219D01*
X107839912Y-75342219D02*
X107554197Y-75342219D01*
X107554197Y-75342219D02*
X107464912Y-75294600D01*
X107464912Y-75294600D02*
X107423245Y-75246980D01*
X108524436Y-74437457D02*
X108578007Y-74389838D01*
X108578007Y-74389838D02*
X108679197Y-74342219D01*
X108679197Y-74342219D02*
X108917293Y-74342219D01*
X108917293Y-74342219D02*
X109006578Y-74389838D01*
X109006578Y-74389838D02*
X109048245Y-74437457D01*
X109048245Y-74437457D02*
X109083959Y-74532695D01*
X109083959Y-74532695D02*
X109072055Y-74627933D01*
X109072055Y-74627933D02*
X109006578Y-74770790D01*
X109006578Y-74770790D02*
X108363721Y-75342219D01*
X108363721Y-75342219D02*
X108982769Y-75342219D01*
X110649436Y-75342219D02*
X110173245Y-75342219D01*
X110173245Y-75342219D02*
X110298245Y-74342219D01*
X111566103Y-75246980D02*
X111512531Y-75294600D01*
X111512531Y-75294600D02*
X111363722Y-75342219D01*
X111363722Y-75342219D02*
X111268484Y-75342219D01*
X111268484Y-75342219D02*
X111131579Y-75294600D01*
X111131579Y-75294600D02*
X111048246Y-75199361D01*
X111048246Y-75199361D02*
X111012531Y-75104123D01*
X111012531Y-75104123D02*
X110988722Y-74913647D01*
X110988722Y-74913647D02*
X111006579Y-74770790D01*
X111006579Y-74770790D02*
X111078007Y-74580314D01*
X111078007Y-74580314D02*
X111137531Y-74485076D01*
X111137531Y-74485076D02*
X111244674Y-74389838D01*
X111244674Y-74389838D02*
X111393484Y-74342219D01*
X111393484Y-74342219D02*
X111488722Y-74342219D01*
X111488722Y-74342219D02*
X111625627Y-74389838D01*
X111625627Y-74389838D02*
X111667293Y-74437457D01*
X111982769Y-75342219D02*
X112107769Y-74342219D01*
X112107769Y-74342219D02*
X112345865Y-74342219D01*
X112345865Y-74342219D02*
X112482769Y-74389838D01*
X112482769Y-74389838D02*
X112566103Y-74485076D01*
X112566103Y-74485076D02*
X112601817Y-74580314D01*
X112601817Y-74580314D02*
X112625627Y-74770790D01*
X112625627Y-74770790D02*
X112607769Y-74913647D01*
X112607769Y-74913647D02*
X112536341Y-75104123D01*
X112536341Y-75104123D02*
X112476817Y-75199361D01*
X112476817Y-75199361D02*
X112369674Y-75294600D01*
X112369674Y-75294600D02*
X112220865Y-75342219D01*
X112220865Y-75342219D02*
X111982769Y-75342219D01*
X113744674Y-75342219D02*
X113869674Y-74342219D01*
X114619674Y-74818409D02*
X114286341Y-74818409D01*
X114220864Y-75342219D02*
X114345864Y-74342219D01*
X114345864Y-74342219D02*
X114822055Y-74342219D01*
X97945863Y-67392219D02*
X98517292Y-67392219D01*
X98106578Y-68392219D02*
X98231578Y-67392219D01*
X98868483Y-68392219D02*
X98779197Y-68344600D01*
X98779197Y-68344600D02*
X98737530Y-68296980D01*
X98737530Y-68296980D02*
X98701816Y-68201742D01*
X98701816Y-68201742D02*
X98737530Y-67916028D01*
X98737530Y-67916028D02*
X98797054Y-67820790D01*
X98797054Y-67820790D02*
X98850625Y-67773171D01*
X98850625Y-67773171D02*
X98951816Y-67725552D01*
X98951816Y-67725552D02*
X99094673Y-67725552D01*
X99094673Y-67725552D02*
X99183959Y-67773171D01*
X99183959Y-67773171D02*
X99225625Y-67820790D01*
X99225625Y-67820790D02*
X99261340Y-67916028D01*
X99261340Y-67916028D02*
X99225625Y-68201742D01*
X99225625Y-68201742D02*
X99166102Y-68296980D01*
X99166102Y-68296980D02*
X99112530Y-68344600D01*
X99112530Y-68344600D02*
X99011340Y-68392219D01*
X99011340Y-68392219D02*
X98868483Y-68392219D01*
X100422054Y-67392219D02*
X100535150Y-68392219D01*
X100535150Y-68392219D02*
X100814911Y-67677933D01*
X100814911Y-67677933D02*
X100916102Y-68392219D01*
X100916102Y-68392219D02*
X101279197Y-67392219D01*
X101535149Y-68392219D02*
X101618483Y-67725552D01*
X101660149Y-67392219D02*
X101606578Y-67439838D01*
X101606578Y-67439838D02*
X101648245Y-67487457D01*
X101648245Y-67487457D02*
X101701816Y-67439838D01*
X101701816Y-67439838D02*
X101660149Y-67392219D01*
X101660149Y-67392219D02*
X101648245Y-67487457D01*
X102154197Y-68392219D02*
X102064911Y-68344600D01*
X102064911Y-68344600D02*
X102029197Y-68249361D01*
X102029197Y-68249361D02*
X102136339Y-67392219D01*
X102963721Y-68392219D02*
X103088721Y-67392219D01*
X102969673Y-68344600D02*
X102868483Y-68392219D01*
X102868483Y-68392219D02*
X102678007Y-68392219D01*
X102678007Y-68392219D02*
X102588721Y-68344600D01*
X102588721Y-68344600D02*
X102547054Y-68296980D01*
X102547054Y-68296980D02*
X102511340Y-68201742D01*
X102511340Y-68201742D02*
X102547054Y-67916028D01*
X102547054Y-67916028D02*
X102606578Y-67820790D01*
X102606578Y-67820790D02*
X102660149Y-67773171D01*
X102660149Y-67773171D02*
X102761340Y-67725552D01*
X102761340Y-67725552D02*
X102951816Y-67725552D01*
X102951816Y-67725552D02*
X103041102Y-67773171D01*
X103380388Y-67725552D02*
X103761340Y-67725552D01*
X103439911Y-68392219D02*
X103547054Y-67535076D01*
X103547054Y-67535076D02*
X103606578Y-67439838D01*
X103606578Y-67439838D02*
X103707769Y-67392219D01*
X103707769Y-67392219D02*
X103803007Y-67392219D01*
X104011340Y-68392219D02*
X104094674Y-67725552D01*
X104070864Y-67916028D02*
X104130388Y-67820790D01*
X104130388Y-67820790D02*
X104183959Y-67773171D01*
X104183959Y-67773171D02*
X104285150Y-67725552D01*
X104285150Y-67725552D02*
X104380388Y-67725552D01*
X104630388Y-68392219D02*
X104713722Y-67725552D01*
X104755388Y-67392219D02*
X104701817Y-67439838D01*
X104701817Y-67439838D02*
X104743484Y-67487457D01*
X104743484Y-67487457D02*
X104797055Y-67439838D01*
X104797055Y-67439838D02*
X104755388Y-67392219D01*
X104755388Y-67392219D02*
X104743484Y-67487457D01*
X105493483Y-68344600D02*
X105392293Y-68392219D01*
X105392293Y-68392219D02*
X105201816Y-68392219D01*
X105201816Y-68392219D02*
X105112531Y-68344600D01*
X105112531Y-68344600D02*
X105076816Y-68249361D01*
X105076816Y-68249361D02*
X105124436Y-67868409D01*
X105124436Y-67868409D02*
X105183959Y-67773171D01*
X105183959Y-67773171D02*
X105285150Y-67725552D01*
X105285150Y-67725552D02*
X105475626Y-67725552D01*
X105475626Y-67725552D02*
X105564912Y-67773171D01*
X105564912Y-67773171D02*
X105600626Y-67868409D01*
X105600626Y-67868409D02*
X105588721Y-67963647D01*
X105588721Y-67963647D02*
X105100626Y-68058885D01*
X106725626Y-68392219D02*
X106850626Y-67392219D01*
X107285150Y-67725552D02*
X107201816Y-68392219D01*
X107273245Y-67820790D02*
X107326816Y-67773171D01*
X107326816Y-67773171D02*
X107428007Y-67725552D01*
X107428007Y-67725552D02*
X107570864Y-67725552D01*
X107570864Y-67725552D02*
X107660150Y-67773171D01*
X107660150Y-67773171D02*
X107695864Y-67868409D01*
X107695864Y-67868409D02*
X107630388Y-68392219D01*
X108047055Y-67725552D02*
X108428007Y-67725552D01*
X108231578Y-67392219D02*
X108124436Y-68249361D01*
X108124436Y-68249361D02*
X108160150Y-68344600D01*
X108160150Y-68344600D02*
X108249436Y-68392219D01*
X108249436Y-68392219D02*
X108344674Y-68392219D01*
X109064912Y-68344600D02*
X108963722Y-68392219D01*
X108963722Y-68392219D02*
X108773245Y-68392219D01*
X108773245Y-68392219D02*
X108683960Y-68344600D01*
X108683960Y-68344600D02*
X108648245Y-68249361D01*
X108648245Y-68249361D02*
X108695865Y-67868409D01*
X108695865Y-67868409D02*
X108755388Y-67773171D01*
X108755388Y-67773171D02*
X108856579Y-67725552D01*
X108856579Y-67725552D02*
X109047055Y-67725552D01*
X109047055Y-67725552D02*
X109136341Y-67773171D01*
X109136341Y-67773171D02*
X109172055Y-67868409D01*
X109172055Y-67868409D02*
X109160150Y-67963647D01*
X109160150Y-67963647D02*
X108672055Y-68058885D01*
X109535150Y-68392219D02*
X109618484Y-67725552D01*
X109594674Y-67916028D02*
X109654198Y-67820790D01*
X109654198Y-67820790D02*
X109707769Y-67773171D01*
X109707769Y-67773171D02*
X109808960Y-67725552D01*
X109808960Y-67725552D02*
X109904198Y-67725552D01*
X110094675Y-67725552D02*
X110475627Y-67725552D01*
X110154198Y-68392219D02*
X110261341Y-67535076D01*
X110261341Y-67535076D02*
X110320865Y-67439838D01*
X110320865Y-67439838D02*
X110422056Y-67392219D01*
X110422056Y-67392219D02*
X110517294Y-67392219D01*
X111154199Y-68392219D02*
X111219675Y-67868409D01*
X111219675Y-67868409D02*
X111183961Y-67773171D01*
X111183961Y-67773171D02*
X111094675Y-67725552D01*
X111094675Y-67725552D02*
X110904199Y-67725552D01*
X110904199Y-67725552D02*
X110803008Y-67773171D01*
X111160151Y-68344600D02*
X111058961Y-68392219D01*
X111058961Y-68392219D02*
X110820865Y-68392219D01*
X110820865Y-68392219D02*
X110731580Y-68344600D01*
X110731580Y-68344600D02*
X110695865Y-68249361D01*
X110695865Y-68249361D02*
X110707770Y-68154123D01*
X110707770Y-68154123D02*
X110767294Y-68058885D01*
X110767294Y-68058885D02*
X110868485Y-68011266D01*
X110868485Y-68011266D02*
X111106580Y-68011266D01*
X111106580Y-68011266D02*
X111207770Y-67963647D01*
X112064913Y-68344600D02*
X111963723Y-68392219D01*
X111963723Y-68392219D02*
X111773247Y-68392219D01*
X111773247Y-68392219D02*
X111683961Y-68344600D01*
X111683961Y-68344600D02*
X111642294Y-68296980D01*
X111642294Y-68296980D02*
X111606580Y-68201742D01*
X111606580Y-68201742D02*
X111642294Y-67916028D01*
X111642294Y-67916028D02*
X111701818Y-67820790D01*
X111701818Y-67820790D02*
X111755389Y-67773171D01*
X111755389Y-67773171D02*
X111856580Y-67725552D01*
X111856580Y-67725552D02*
X112047056Y-67725552D01*
X112047056Y-67725552D02*
X112136342Y-67773171D01*
X112874437Y-68344600D02*
X112773247Y-68392219D01*
X112773247Y-68392219D02*
X112582770Y-68392219D01*
X112582770Y-68392219D02*
X112493485Y-68344600D01*
X112493485Y-68344600D02*
X112457770Y-68249361D01*
X112457770Y-68249361D02*
X112505390Y-67868409D01*
X112505390Y-67868409D02*
X112564913Y-67773171D01*
X112564913Y-67773171D02*
X112666104Y-67725552D01*
X112666104Y-67725552D02*
X112856580Y-67725552D01*
X112856580Y-67725552D02*
X112945866Y-67773171D01*
X112945866Y-67773171D02*
X112981580Y-67868409D01*
X112981580Y-67868409D02*
X112969675Y-67963647D01*
X112969675Y-67963647D02*
X112481580Y-68058885D01*
D13*
X96127442Y-71009438D02*
X96377442Y-69009438D01*
X96377442Y-69009438D02*
X96865537Y-70438009D01*
X96865537Y-70438009D02*
X97710776Y-69009438D01*
X97710776Y-69009438D02*
X97460776Y-71009438D01*
X99210775Y-69961819D02*
X99484585Y-70057057D01*
X99484585Y-70057057D02*
X99567918Y-70152295D01*
X99567918Y-70152295D02*
X99639347Y-70342771D01*
X99639347Y-70342771D02*
X99603632Y-70628485D01*
X99603632Y-70628485D02*
X99484585Y-70818961D01*
X99484585Y-70818961D02*
X99377442Y-70914200D01*
X99377442Y-70914200D02*
X99175061Y-71009438D01*
X99175061Y-71009438D02*
X98413156Y-71009438D01*
X98413156Y-71009438D02*
X98663156Y-69009438D01*
X98663156Y-69009438D02*
X99329823Y-69009438D01*
X99329823Y-69009438D02*
X99508394Y-69104676D01*
X99508394Y-69104676D02*
X99591728Y-69199914D01*
X99591728Y-69199914D02*
X99663156Y-69390390D01*
X99663156Y-69390390D02*
X99639347Y-69580866D01*
X99639347Y-69580866D02*
X99520299Y-69771342D01*
X99520299Y-69771342D02*
X99413156Y-69866580D01*
X99413156Y-69866580D02*
X99210775Y-69961819D01*
X99210775Y-69961819D02*
X98544109Y-69961819D01*
X100329823Y-70914200D02*
X100603632Y-71009438D01*
X100603632Y-71009438D02*
X101079823Y-71009438D01*
X101079823Y-71009438D02*
X101282204Y-70914200D01*
X101282204Y-70914200D02*
X101389347Y-70818961D01*
X101389347Y-70818961D02*
X101508394Y-70628485D01*
X101508394Y-70628485D02*
X101532204Y-70438009D01*
X101532204Y-70438009D02*
X101460775Y-70247533D01*
X101460775Y-70247533D02*
X101377442Y-70152295D01*
X101377442Y-70152295D02*
X101198871Y-70057057D01*
X101198871Y-70057057D02*
X100829823Y-69961819D01*
X100829823Y-69961819D02*
X100651251Y-69866580D01*
X100651251Y-69866580D02*
X100567918Y-69771342D01*
X100567918Y-69771342D02*
X100496490Y-69580866D01*
X100496490Y-69580866D02*
X100520299Y-69390390D01*
X100520299Y-69390390D02*
X100639347Y-69199914D01*
X100639347Y-69199914D02*
X100746490Y-69104676D01*
X100746490Y-69104676D02*
X100948871Y-69009438D01*
X100948871Y-69009438D02*
X101425061Y-69009438D01*
X101425061Y-69009438D02*
X101698871Y-69104676D01*
X105008395Y-70818961D02*
X104901252Y-70914200D01*
X104901252Y-70914200D02*
X104603633Y-71009438D01*
X104603633Y-71009438D02*
X104413157Y-71009438D01*
X104413157Y-71009438D02*
X104139347Y-70914200D01*
X104139347Y-70914200D02*
X103972681Y-70723723D01*
X103972681Y-70723723D02*
X103901252Y-70533247D01*
X103901252Y-70533247D02*
X103853633Y-70152295D01*
X103853633Y-70152295D02*
X103889347Y-69866580D01*
X103889347Y-69866580D02*
X104032204Y-69485628D01*
X104032204Y-69485628D02*
X104151252Y-69295152D01*
X104151252Y-69295152D02*
X104365538Y-69104676D01*
X104365538Y-69104676D02*
X104663157Y-69009438D01*
X104663157Y-69009438D02*
X104853633Y-69009438D01*
X104853633Y-69009438D02*
X105127443Y-69104676D01*
X105127443Y-69104676D02*
X105210776Y-69199914D01*
X106794109Y-71009438D02*
X105841728Y-71009438D01*
X105841728Y-71009438D02*
X106091728Y-69009438D01*
X108317919Y-71009438D02*
X108448871Y-69961819D01*
X108448871Y-69961819D02*
X108377443Y-69771342D01*
X108377443Y-69771342D02*
X108198871Y-69676104D01*
X108198871Y-69676104D02*
X107817919Y-69676104D01*
X107817919Y-69676104D02*
X107615538Y-69771342D01*
X108329824Y-70914200D02*
X108127443Y-71009438D01*
X108127443Y-71009438D02*
X107651252Y-71009438D01*
X107651252Y-71009438D02*
X107472681Y-70914200D01*
X107472681Y-70914200D02*
X107401252Y-70723723D01*
X107401252Y-70723723D02*
X107425062Y-70533247D01*
X107425062Y-70533247D02*
X107544110Y-70342771D01*
X107544110Y-70342771D02*
X107746491Y-70247533D01*
X107746491Y-70247533D02*
X108222681Y-70247533D01*
X108222681Y-70247533D02*
X108425062Y-70152295D01*
X109186967Y-70914200D02*
X109365538Y-71009438D01*
X109365538Y-71009438D02*
X109746491Y-71009438D01*
X109746491Y-71009438D02*
X109948872Y-70914200D01*
X109948872Y-70914200D02*
X110067919Y-70723723D01*
X110067919Y-70723723D02*
X110079824Y-70628485D01*
X110079824Y-70628485D02*
X110008395Y-70438009D01*
X110008395Y-70438009D02*
X109829824Y-70342771D01*
X109829824Y-70342771D02*
X109544110Y-70342771D01*
X109544110Y-70342771D02*
X109365538Y-70247533D01*
X109365538Y-70247533D02*
X109294110Y-70057057D01*
X109294110Y-70057057D02*
X109306015Y-69961819D01*
X109306015Y-69961819D02*
X109425062Y-69771342D01*
X109425062Y-69771342D02*
X109627443Y-69676104D01*
X109627443Y-69676104D02*
X109913157Y-69676104D01*
X109913157Y-69676104D02*
X110091729Y-69771342D01*
X110806015Y-70914200D02*
X110984586Y-71009438D01*
X110984586Y-71009438D02*
X111365539Y-71009438D01*
X111365539Y-71009438D02*
X111567920Y-70914200D01*
X111567920Y-70914200D02*
X111686967Y-70723723D01*
X111686967Y-70723723D02*
X111698872Y-70628485D01*
X111698872Y-70628485D02*
X111627443Y-70438009D01*
X111627443Y-70438009D02*
X111448872Y-70342771D01*
X111448872Y-70342771D02*
X111163158Y-70342771D01*
X111163158Y-70342771D02*
X110984586Y-70247533D01*
X110984586Y-70247533D02*
X110913158Y-70057057D01*
X110913158Y-70057057D02*
X110925063Y-69961819D01*
X110925063Y-69961819D02*
X111044110Y-69771342D01*
X111044110Y-69771342D02*
X111246491Y-69676104D01*
X111246491Y-69676104D02*
X111532205Y-69676104D01*
X111532205Y-69676104D02*
X111710777Y-69771342D01*
X113865539Y-70057057D02*
X113782206Y-69961819D01*
X113782206Y-69961819D02*
X113603634Y-69866580D01*
X113603634Y-69866580D02*
X113413158Y-69866580D01*
X113413158Y-69866580D02*
X113210777Y-69961819D01*
X113210777Y-69961819D02*
X113103634Y-70057057D01*
X113103634Y-70057057D02*
X112984587Y-70247533D01*
X112984587Y-70247533D02*
X112960777Y-70438009D01*
X112960777Y-70438009D02*
X113032206Y-70628485D01*
X113032206Y-70628485D02*
X113115539Y-70723723D01*
X113115539Y-70723723D02*
X113294111Y-70818961D01*
X113294111Y-70818961D02*
X113484587Y-70818961D01*
X113484587Y-70818961D02*
X113686968Y-70723723D01*
X113686968Y-70723723D02*
X113794111Y-70628485D01*
X113889349Y-69866580D02*
X113794111Y-70628485D01*
X113794111Y-70628485D02*
X113877444Y-70723723D01*
X113877444Y-70723723D02*
X113972682Y-70723723D01*
X113972682Y-70723723D02*
X114175063Y-70628485D01*
X114175063Y-70628485D02*
X114294111Y-70438009D01*
X114294111Y-70438009D02*
X114353634Y-69961819D01*
X114353634Y-69961819D02*
X114198872Y-69676104D01*
X114198872Y-69676104D02*
X113936968Y-69485628D01*
X113936968Y-69485628D02*
X113567920Y-69390390D01*
X113567920Y-69390390D02*
X113175063Y-69485628D01*
X113175063Y-69485628D02*
X112865539Y-69676104D01*
X112865539Y-69676104D02*
X112639349Y-69961819D01*
X112639349Y-69961819D02*
X112496491Y-70342771D01*
X112496491Y-70342771D02*
X112544111Y-70723723D01*
X112544111Y-70723723D02*
X112698872Y-71009438D01*
X112698872Y-71009438D02*
X112960777Y-71199914D01*
X112960777Y-71199914D02*
X113329825Y-71295152D01*
X113329825Y-71295152D02*
X113722682Y-71199914D01*
X113722682Y-71199914D02*
X114032206Y-71009438D01*
D11*
X90716666Y-62154819D02*
X90716666Y-62869104D01*
X90716666Y-62869104D02*
X90669047Y-63011961D01*
X90669047Y-63011961D02*
X90573809Y-63107200D01*
X90573809Y-63107200D02*
X90430952Y-63154819D01*
X90430952Y-63154819D02*
X90335714Y-63154819D01*
X91716666Y-63154819D02*
X91145238Y-63154819D01*
X91430952Y-63154819D02*
X91430952Y-62154819D01*
X91430952Y-62154819D02*
X91335714Y-62297676D01*
X91335714Y-62297676D02*
X91240476Y-62392914D01*
X91240476Y-62392914D02*
X91145238Y-62440533D01*
X119066666Y-79204819D02*
X119066666Y-79919104D01*
X119066666Y-79919104D02*
X119019047Y-80061961D01*
X119019047Y-80061961D02*
X118923809Y-80157200D01*
X118923809Y-80157200D02*
X118780952Y-80204819D01*
X118780952Y-80204819D02*
X118685714Y-80204819D01*
X119495238Y-79300057D02*
X119542857Y-79252438D01*
X119542857Y-79252438D02*
X119638095Y-79204819D01*
X119638095Y-79204819D02*
X119876190Y-79204819D01*
X119876190Y-79204819D02*
X119971428Y-79252438D01*
X119971428Y-79252438D02*
X120019047Y-79300057D01*
X120019047Y-79300057D02*
X120066666Y-79395295D01*
X120066666Y-79395295D02*
X120066666Y-79490533D01*
X120066666Y-79490533D02*
X120019047Y-79633390D01*
X120019047Y-79633390D02*
X119447619Y-80204819D01*
X119447619Y-80204819D02*
X120066666Y-80204819D01*
%TO.C,J1*%
D14*
X93550000Y-59325000D02*
X93550000Y-61065000D01*
X93550000Y-65125000D02*
X93550000Y-63785000D01*
X95040000Y-65125000D02*
X93550000Y-65125000D01*
X115360000Y-65125000D02*
X115360000Y-66325000D01*
X115360000Y-65125000D02*
X116850000Y-65125000D01*
X116850000Y-59325000D02*
X93550000Y-59325000D01*
X116850000Y-61065000D02*
X116850000Y-59325000D01*
X116850000Y-65125000D02*
X116850000Y-63785000D01*
%TO.C,J2*%
X93550000Y-77725000D02*
X93550000Y-79065000D01*
X93550000Y-81785000D02*
X93550000Y-83525000D01*
X93550000Y-83525000D02*
X116850000Y-83525000D01*
X95040000Y-77725000D02*
X93550000Y-77725000D01*
X95040000Y-77725000D02*
X95040000Y-76525000D01*
X115360000Y-77725000D02*
X116850000Y-77725000D01*
X116850000Y-77725000D02*
X116850000Y-79065000D01*
X116850000Y-83525000D02*
X116850000Y-81785000D01*
%TD*%
M02*
